<?xml version="1.0" encoding="UTF-8"?>
<!DOCTYPE svg PUBLIC "-//W3C//DTD SVG 1.1//EN" "http://www.w3.org/Graphics/SVG/1.1/DTD/svg11.dtd">
<svg version="1.1" xmlns="http://www.w3.org/2000/svg" xmlns:xlink="http://www.w3.org/1999/xlink" x="0" y="0" width="432.716" height="322.637" viewBox="0, 0, 432.716, 322.637">
  <defs>
    <clipPath id="Clip_1">
      <path d="M-0,-0 L432.716,-0 L432.716,322.637 L-0,322.637 z"/>
    </clipPath>
    <radialGradient id="Gradient_1" gradientUnits="userSpaceOnUse" cx="214.79" cy="196.412" r="159.694" fx="214.137" fy="213.556">
      <stop offset="0" stop-color="#FFF479"/>
      <stop offset="0.153" stop-color="#FFF479"/>
      <stop offset="1" stop-color="#FFF7AA"/>
    </radialGradient>
    <radialGradient id="Gradient_2" gradientUnits="userSpaceOnUse" cx="214.137" cy="235.153" r="146.406" fx="213.538" fy="250.87">
      <stop offset="0" stop-color="#C8AA7C"/>
      <stop offset="0.153" stop-color="#C8AA7C"/>
      <stop offset="1" stop-color="#CECCAC"/>
    </radialGradient>
    <radialGradient id="Gradient_3" gradientUnits="userSpaceOnUse" cx="215.083" cy="193.785" r="148.14" gradientTransform="matrix(0.021, -1, 0.998, 0.02, 17.288, 404.549)">
      <stop offset="0" stop-color="#FEDB59"/>
      <stop offset="0.71" stop-color="#FEDB59"/>
      <stop offset="1" stop-color="#FFF7AA"/>
    </radialGradient>
    <clipPath id="Clip_2">
      <path d="M207.925,257.964 C205.786,257.964 204.211,257.435 203.242,256.392 C202.464,255.556 201.38,255.103 200.27,255.103 C199.873,255.103 199.473,255.16 199.082,255.279 C197.812,255.667 195.92,255.89 193.894,255.89 C190.711,255.89 188.125,256.134 186.428,256.134 C185.883,256.134 185.43,256.109 185.078,256.042 C184.828,255.924 184.583,255.797 184.343,255.659 C184.263,254.414 183.654,251.379 182.674,250.678 C181.977,250.18 181.148,249.922 180.311,249.922 C179.882,249.922 179.451,249.988 179.033,250.127 C176.983,250.806 173.682,251.527 170.565,251.527 C164.836,251.527 164.461,249.292 164.337,248.559 C164.119,247.264 163.277,246.158 162.085,245.598 C161.534,245.338 160.941,245.21 160.35,245.21 C159.657,245.21 158.965,245.387 158.345,245.737 C156.989,246.507 155.5,246.912 154.04,246.912 C152.679,246.912 151.427,246.546 150.607,245.908 C149.758,245.248 149.659,244.523 149.659,244.034 C149.659,242.746 149.035,241.538 147.981,240.785 C147.284,240.286 146.455,240.027 145.618,240.027 C145.189,240.027 144.757,240.096 144.34,240.234 C143.506,240.51 142.523,240.648 141.418,240.648 C135.874,240.648 130.454,237.357 130.12,235.367 C129.79,233.409 128.079,232.02 126.138,232.02 C125.928,232.02 125.716,232.035 125.502,232.069 C124.931,232.159 124.376,232.204 123.855,232.204 C121.772,232.204 120.108,231.48 118.908,230.055 C117.827,228.769 117.342,227.159 117.342,226.134 C117.342,224.189 115.935,222.525 114.003,222.188 C110.717,221.612 107.723,219.664 105.991,216.974 C104.759,215.06 104.354,212.99 104.85,211.148 C105.087,210.271 104.21,210.138 103.55,209.611 C103.494,209.492 103.43,209.376 103.359,209.264 C103.239,209.075 103.098,208.902 102.94,208.746 C102.579,207.758 102.628,206.348 101.668,206.174 C99.301,205.749 96.25,204.196 94.996,202.055 C94.258,200.795 94.187,199.437 94.775,197.787 C95.154,196.725 95.063,195.551 94.523,194.558 C93.985,193.565 91.836,194.042 90.732,193.769 C86.904,192.821 85.622,189.136 84.923,187.23 C84.453,185.948 84.826,185.193 85.203,184.679 C86.263,183.234 86.23,181.272 85.125,179.863 C84.761,179.4 84.405,178.956 84.059,178.523 C81.141,174.879 80.842,174.132 81.271,173.28 C82.043,171.753 81.752,169.909 80.55,168.688 C79.771,167.898 78.721,167.481 77.655,167.481 C77.076,167.481 76.493,167.604 75.945,167.859 C76.211,166.063 75.222,164.27 73.491,163.563 C72.985,163.354 72.458,163.255 71.94,163.255 C70.522,163.255 69.165,163.994 68.433,165.285 C68.206,165.68 67.928,166.098 67.637,166.488 C67.72,164.103 68.824,160.697 69.882,159.389 C70.377,158.773 70.68,158.03 70.752,157.247 C70.855,156.123 70.937,155.019 71.015,153.96 C71.191,151.564 71.433,148.285 71.905,147.446 C72.598,146.531 72.84,145.402 72.61,144.28 C72.384,143.162 71.66,142.224 70.664,141.648 C70.402,141.496 69.606,141.034 69.274,139.163 C68.71,135.985 70.043,132.062 70.781,131.184 C71.243,130.635 71.542,129.981 71.661,129.292 C72.451,129.465 73.354,130.531 73.354,134.509 C73.354,136.483 73.855,137.023 74.623,137.023 C75.087,137.023 75.65,136.825 76.259,136.628 C76.868,136.43 77.523,136.232 78.173,136.232 C79.645,136.232 81.09,137.247 81.909,141.575 C84.047,152.881 79.771,155 86.186,157.119 C92.602,159.24 94.74,165.6 92.602,171.961 C96.167,175.492 101.156,175.492 101.156,180.438 C101.606,181.33 102.339,181.628 103.217,181.628 C104.102,181.628 105.134,181.325 106.17,181.022 C107.206,180.719 108.247,180.416 109.149,180.416 C110.705,180.416 111.85,181.318 111.85,184.679 C115.414,191.038 126.106,198.812 123.968,204.464 C121.83,210.116 126.82,212.944 130.384,212.944 C131.358,212.944 133.131,212.839 135.221,212.786 C136.572,213.56 138.195,214.06 140.026,214.061 C141.088,214.061 142.22,213.892 143.409,213.511 C142.791,215.034 144.275,220.124 148.031,222.148 C147.365,222.642 146.78,222.836 146.78,222.836 C146.78,222.836 147.784,222.711 149.197,222.647 C149.871,222.865 150.603,222.988 151.395,222.988 C151.893,222.988 152.413,222.94 152.958,222.836 C153.124,222.804 153.287,222.772 153.445,222.74 C155.942,223.013 158.186,223.781 158.186,225.662 C158.186,226.737 158.691,227.131 159.502,227.131 C160.609,227.131 162.289,226.397 164.037,225.663 C165.785,224.929 167.602,224.194 168.983,224.194 C169.197,224.194 169.401,224.212 169.592,224.25 C173.156,224.956 173.869,232.023 173.869,232.023 C173.869,232.023 182.855,225.491 186.549,225.491 C186.885,225.491 187.176,225.544 187.414,225.662 C190.266,227.076 196.681,232.023 196.681,232.023 C196.681,232.023 201.393,226.182 204.393,226.182 C204.693,226.182 204.975,226.241 205.235,226.369 C208.087,227.783 210.939,232.023 210.939,232.023 C210.939,232.023 219.493,226.369 222.345,226.369 C225.197,226.369 231.611,229.902 233.75,229.902 C235.583,229.902 243.7,223.673 248.676,223.673 C249.506,223.673 250.248,223.846 250.86,224.25 C255.136,227.076 255.849,233.435 255.849,233.435 C255.849,233.435 262.624,227.076 271.889,227.076 C281.156,227.076 286.86,227.428 286.86,227.428 C286.86,227.428 295.414,221.776 298.978,220.363 C302.262,219.061 307.665,208.46 309.609,208.46 C309.775,208.46 309.916,208.537 310.028,208.704 C310.102,208.814 310.199,208.866 310.316,208.866 C311.372,208.866 314.103,204.669 316.931,200.473 C319.758,196.276 322.683,192.08 324.126,192.08 C324.181,192.08 324.235,192.086 324.286,192.099 C324.375,192.121 324.459,192.131 324.538,192.131 C325.653,192.131 325.827,190.023 326.397,187.915 C326.967,185.807 327.934,183.699 330.633,183.699 C331.176,183.699 331.789,183.784 332.483,183.972 C333.061,184.128 333.661,184.2 334.275,184.2 C337.736,184.2 341.672,181.925 344.962,179.649 C348.253,177.374 350.898,175.099 351.775,175.099 C351.978,175.099 352.086,175.221 352.086,175.492 C352.086,175.63 352.093,175.696 352.106,175.696 C352.231,175.696 352.931,169.802 353.85,163.908 C354.77,158.015 355.91,152.121 356.917,152.121 C356.971,152.121 357.025,152.138 357.079,152.174 C357.144,152.217 357.206,152.238 357.266,152.238 C357.749,152.238 358.075,150.892 358.36,148.981 C359.681,151.684 361.471,156.5 360.788,159.212 C359.716,163.457 356.847,166.095 356.818,166.117 C355.46,167.295 355.058,169.217 355.817,170.828 C356.355,172.667 355.165,178.833 353.996,180.349 C353.337,180.759 352.811,181.354 352.484,182.058 C351.88,183.352 351.26,184.871 350.599,186.48 C349.302,189.651 345.856,198.074 343.754,198.577 C342.405,198.577 341.184,199.243 340.433,200.358 C337.26,205.073 331.02,208.437 330.958,208.469 C329.647,209.168 328.824,210.525 328.824,212.001 C328.824,215.604 324.47,221.025 322.624,221.661 L322.41,221.655 C321.126,221.655 319.909,222.262 319.141,223.306 C318.222,224.56 317.462,225.881 316.728,227.161 C314.226,231.516 312.576,234.396 306.287,234.396 C306.02,234.396 305.746,234.39 305.462,234.38 L305.299,234.375 C304.299,234.375 303.329,234.747 302.583,235.416 C296.24,241.13 289.26,245.439 286.346,245.44 L286.218,245.436 C285.449,244.462 284.242,243.848 282.994,243.848 L282.904,243.851 C281.563,243.882 280.29,244.518 279.565,245.635 C277.205,249.277 272.376,252.998 269.711,254.142 C269.451,253.316 268.923,252.585 268.194,252.073 C267.5,251.586 266.682,251.334 265.856,251.334 C265.408,251.334 264.956,251.407 264.521,251.559 C260.1,253.092 251.873,255.947 246.46,255.948 C243.042,255.948 242.819,254.95 242.712,254.471 C242.441,253.268 241.627,252.253 240.502,251.723 C239.953,251.465 239.36,251.334 238.767,251.334 C238.147,251.334 237.528,251.476 236.959,251.758 C236.117,252.176 235.309,254.596 234.531,254.998 C232.398,256.103 230.497,257.089 228.959,257.435 C228.678,257.479 228.406,257.502 228.142,257.502 C227.983,257.502 227.811,257.495 227.625,257.475 C226.965,257.049 226.055,255.25 224.721,254.146 C223.971,253.527 223.052,253.219 222.133,253.219 C221.195,253.219 220.259,253.541 219.502,254.183 C217.992,255.466 212.54,257.964 207.937,257.964 C207.933,257.964 207.929,257.964 207.925,257.964 z M359.152,142.708 C359.619,139.263 360.238,136.204 361.406,136.204 C361.567,136.204 361.738,136.262 361.921,136.385 C362.285,138.183 362.615,140.339 362.821,142.308 C362.359,142.133 361.87,142.044 361.38,142.044 C360.603,142.044 359.827,142.265 359.152,142.708 z"/>
    </clipPath>
    <clipPath id="Clip_3">
      <path d="M-0,-0 L432.716,-0 L432.716,322.637 L-0,322.637 z"/>
    </clipPath>
    <radialGradient id="Gradient_4" gradientUnits="userSpaceOnUse" cx="145.506" cy="211.047" r="15.3" gradientTransform="matrix(1.308, -1.28, 1.576, 1.611, -377.514, 57.14)">
      <stop offset="0" stop-color="#FEDB59"/>
      <stop offset="0.603" stop-color="#FEDB59"/>
      <stop offset="1" stop-color="#FFF7AA"/>
    </radialGradient>
    <clipPath id="Clip_4">
      <path d="M133.311,200.665 C134.705,200.665 136.2,200.988 136.324,202.346 C136.547,204.778 138.655,208.041 144.42,208.041 C144.795,208.041 145.186,208.027 145.592,207.998 C145.884,207.977 146.156,207.967 146.41,207.967 C150.258,207.967 149.825,210.264 149.156,212.474 C148.486,214.688 152.389,216.776 155.604,216.776 C155.919,216.776 156.227,216.756 156.523,216.714 C156.661,216.694 156.796,216.685 156.929,216.685 C158.89,216.685 160.294,218.716 159.849,220.481 C159.288,220.686 158.747,220.87 158.225,221.035 C158.73,220.562 158.379,220.227 157.559,220.227 C157.164,220.227 156.661,220.304 156.091,220.481 C154.685,220.951 153.211,221.095 151.74,221.169 L151.736,221.169 C150.059,221.069 150.888,221.178 149.249,220.843 C149.861,219.86 150.2,218.449 149.632,216.477 C149.203,214.988 147.613,214.076 145.501,213.527 C145.598,211.285 145.399,210.553 144.73,210.553 C144.144,210.553 143.197,211.117 141.772,211.72 C141.258,211.937 140.679,212.038 140.069,212.038 C136.853,212.039 132.759,209.226 132.728,205.78 C132.713,204.043 132.689,203.479 132.434,203.479 C132.218,203.479 131.837,203.883 131.156,204.32 C131.126,204.407 131.096,204.492 131.068,204.577 C130.705,202.545 130.86,200.932 130.86,200.932 C130.86,200.932 132.044,200.665 133.311,200.665 z"/>
    </clipPath>
    <clipPath id="Clip_5">
      <path d="M149.249,220.843 C146.998,220.181 145.213,218.376 145.462,214.271 C145.478,214.007 145.491,213.759 145.501,213.527 C147.613,214.076 149.203,214.988 149.632,216.477 C150.2,218.449 149.861,219.86 149.249,220.843 z"/>
    </clipPath>
    <radialGradient id="Gradient_5" gradientUnits="userSpaceOnUse" cx="145.317" cy="217.372" r="15.104" fx="145.256" fy="218.993">
      <stop offset="0" stop-color="#12120A"/>
      <stop offset="0.153" stop-color="#12120A"/>
      <stop offset="1" stop-color="#171916"/>
    </radialGradient>
    <radialGradient id="Gradient_6" gradientUnits="userSpaceOnUse" cx="235.803" cy="132.003" r="16.02" gradientTransform="matrix(1.124, -1.368, 1.48, 1.216, -224.556, 293.871)">
      <stop offset="0" stop-color="#FEDB59"/>
      <stop offset="0.728" stop-color="#FEDB59"/>
      <stop offset="1" stop-color="#FFF7AA"/>
    </radialGradient>
    <clipPath id="Clip_6">
      <path d="M248.878,140.48 C246.956,140.48 244.584,139.825 244.445,136.63 C244.395,135.494 243.251,135.149 241.761,135.149 C239.841,135.149 237.348,135.724 235.889,135.923 C235.775,135.939 235.663,135.946 235.554,135.946 C233.179,135.946 231.873,132.378 230.663,130.272 C229.395,128.065 229.519,126.443 227.334,126.266 C227.271,126.261 227.206,126.259 227.14,126.259 C226.508,126.259 225.733,126.476 224.934,126.694 C224.135,126.912 223.312,127.129 222.585,127.129 C221.472,127.129 220.58,126.62 220.335,124.824 C220.734,124.613 221.122,124.416 221.501,124.23 C221.607,124.311 221.784,124.354 222.016,124.354 C222.444,124.354 223.058,124.207 223.759,123.879 C225.016,123.29 227.211,122.508 229.343,122.508 C232.111,122.508 234.773,123.824 235.146,128.585 C235.356,131.266 235.626,132.178 236.278,132.178 C236.859,132.178 237.742,131.454 239.156,130.612 C239.845,130.201 240.704,130.01 241.623,130.01 C244.701,130.01 248.468,132.144 248.933,135.266 C249.181,136.935 249.285,137.507 249.522,137.507 C249.736,137.507 250.059,137.042 250.694,136.499 C250.719,136.373 250.743,136.249 250.766,136.128 C251.358,138.315 251.335,140.163 251.335,140.163 C251.335,140.163 250.215,140.48 248.878,140.48 z"/>
    </clipPath>
    <radialGradient id="Gradient_7" gradientUnits="userSpaceOnUse" cx="235.072" cy="126.421" r="14.898" fx="234.915" fy="124.828">
      <stop offset="0" stop-color="#12120A"/>
      <stop offset="0.153" stop-color="#12120A"/>
      <stop offset="1" stop-color="#171916"/>
    </radialGradient>
    <radialGradient id="Gradient_8" gradientUnits="userSpaceOnUse" cx="142.309" cy="64.294" r="23.94" gradientTransform="matrix(0.972, -0.727, 0.592, 0.791, -34.058, 116.603)">
      <stop offset="0" stop-color="#FEDB59"/>
      <stop offset="0.416" stop-color="#FEDB59"/>
      <stop offset="1" stop-color="#FFF7AA"/>
    </radialGradient>
    <clipPath id="Clip_7">
      <path d="M122.306,79.864 C119.097,71.385 123.612,62.434 132.167,62.079 C135.132,54.844 138.973,53.541 141.355,53.541 C142.694,53.541 143.572,53.954 143.572,53.954 C143.572,53.954 144.384,51.64 152.84,48.654 C154.204,48.173 155.432,47.964 156.539,47.964 C163.82,47.964 165.79,57.017 165.79,57.017 C165.79,57.017 165.59,57.358 164.378,57.358 C163.301,57.358 161.427,57.089 158.186,56.074 C157.272,55.788 156.503,55.66 155.853,55.66 C153.116,55.66 152.5,57.933 152.067,60.205 C151.634,62.478 151.384,64.75 149.378,64.75 C149.166,64.75 148.935,64.725 148.682,64.672 C148.153,64.561 147.672,64.509 147.23,64.509 C142.975,64.509 142.427,69.317 139.413,72.09 C138.804,72.652 138.199,72.872 137.6,72.872 C136.517,72.872 135.454,72.152 134.427,71.433 C133.398,70.714 132.405,69.994 131.459,69.994 C131.175,69.994 130.896,70.059 130.622,70.207 C127.355,71.975 125.514,76.685 122.306,79.864 z"/>
    </clipPath>
    <radialGradient id="Gradient_9" gradientUnits="userSpaceOnUse" cx="303.141" cy="69.184" r="22.86" gradientTransform="matrix(0.774, -0.633, 1.049, 1.283, -4.117, 172.011)">
      <stop offset="0" stop-color="#FEDB59"/>
      <stop offset="0.644" stop-color="#FEDB59"/>
      <stop offset="1" stop-color="#FFF7AA"/>
    </radialGradient>
    <clipPath id="Clip_8">
      <path d="M319.533,86.93 C314.808,86.706 315.408,76.554 311.647,76.554 C311.437,76.554 311.214,76.586 310.974,76.653 C309.138,77.166 307.391,77.827 306.129,77.827 C304.878,77.828 304.103,77.179 304.187,75.098 C304.346,71.096 301.796,66.642 296.454,66.642 C296.21,66.642 295.96,66.651 295.705,66.67 C295.546,66.682 295.395,66.687 295.249,66.687 C292.732,66.687 292.092,64.968 291.421,63.249 C290.75,61.529 290.048,59.81 287.405,59.81 C287.196,59.81 286.974,59.82 286.74,59.843 C286.033,59.91 285.435,59.94 284.931,59.94 C280.922,59.94 282.832,58.043 282.832,58.043 C282.832,58.043 283.388,50.793 289.86,50.793 C290.634,50.793 291.492,50.897 292.444,51.129 C301.363,53.303 300.286,58.666 300.286,58.666 C300.286,58.666 300.686,58.603 301.351,58.603 C303.932,58.603 310.499,59.55 313.118,68.793 C321.76,70.23 325.474,80.571 319.533,86.93 z"/>
    </clipPath>
    <radialGradient id="Gradient_10" gradientUnits="userSpaceOnUse" cx="280.302" cy="211.229" r="24.48" gradientTransform="matrix(0.895, -0.75, 0.588, 0.701, -94.803, 273.134)">
      <stop offset="0" stop-color="#FEDB59"/>
      <stop offset="0.652" stop-color="#FEDB59"/>
      <stop offset="1" stop-color="#FFF7AA"/>
    </radialGradient>
    <clipPath id="Clip_9">
      <path d="M266.09,224.734 C262.729,224.734 259.346,222.985 256.712,219.331 C256.654,217.745 258.064,217.517 259.941,217.517 C260.32,217.517 260.719,217.526 261.128,217.536 C261.538,217.545 261.958,217.554 262.381,217.554 C264.841,217.554 267.389,217.239 268.398,214.77 C269.52,212.022 269.239,209.009 271.032,209.009 C271.47,209.009 272.031,209.189 272.767,209.596 C274.063,210.312 275.53,210.764 276.939,210.764 C279.604,210.764 282.06,209.147 282.759,204.641 C282.959,203.357 283.652,202.908 284.611,202.908 C285.723,202.908 287.191,203.51 288.66,204.112 C290.13,204.714 291.602,205.316 292.721,205.316 C293.753,205.316 294.484,204.805 294.638,203.31 C295.243,197.46 296.352,196.816 296.811,196.816 C296.94,196.816 297.018,196.867 297.018,196.867 C297.018,196.867 304.48,202.848 298.622,209.588 C295.117,213.618 291.926,214.427 289.926,214.427 C288.582,214.427 287.776,214.062 287.776,214.062 C287.776,214.062 287.573,219.966 279.752,219.966 C278.518,219.966 277.095,219.82 275.454,219.479 C272.899,222.927 269.506,224.734 266.09,224.734 z"/>
    </clipPath>
    <radialGradient id="Gradient_11" gradientUnits="userSpaceOnUse" cx="219.427" cy="64.027" r="47.716" fx="219.232" fy="69.149">
      <stop offset="0" stop-color="#FEDB59"/>
      <stop offset="0.153" stop-color="#FEDB59"/>
      <stop offset="1" stop-color="#FFF7AA"/>
    </radialGradient>
  </defs>
  <g id="Layer_1">
    <path d="M218.26,6.639 C180.097,6.639 165.867,6.639 146.462,10.52 C127.057,14.4 82.426,35.099 44.91,62.913 C37.148,69.381 1.572,121.127 2.219,176.755 C4.16,189.045 6.747,209.743 37.148,240.144 C67.549,270.545 104.417,305.474 139.346,311.941 C174.275,318.41 193.68,322.938 242.193,319.057 C290.705,315.176 319.165,306.768 350.213,280.894 C381.26,255.021 424.598,216.858 429.772,183.869 C431.066,166.406 432.36,149.588 413.602,105.603 C394.844,61.62 376.734,54.504 359.914,44.155 C343.098,33.805 306.876,15.047 291.999,11.813 C277.121,8.579 249.308,6.639 218.26,6.639" fill="#FFFFFE" id="path70379"/>
    <path d="M155.623,289.479 C154.754,289.406 153.885,289.334 153.017,289.262 C153.367,288.297 153.715,287.331 154.061,286.367 C156.534,286.665 159.014,286.963 161.501,287.261 C160.664,290.447 159.818,293.635 158.965,296.822 C153.116,296.231 147.3,295.643 141.515,295.053 C143.48,289.396 145.412,283.739 147.313,278.082 C155.535,279.041 163.834,280.004 172.213,280.964 C170.639,287.368 169.027,293.773 167.377,300.179 C167.092,301.358 168.07,302.414 169.571,302.535 C171.071,302.656 172.504,301.796 172.769,300.613 C174.468,293.519 176.122,286.425 177.73,279.331 C177.974,278.177 177.105,277.141 175.765,276.983 C165.845,275.83 156.038,274.678 146.344,273.524 C145.696,273.448 144.987,273.604 144.386,273.951 C143.782,274.304 143.326,274.825 143.125,275.396 C140.64,282.484 138.103,289.571 135.517,296.658 C135.083,297.839 135.91,298.908 137.371,299.053 C145.004,299.823 152.691,300.593 160.433,301.363 C161.163,301.436 161.912,301.274 162.539,300.911 C163.163,300.55 163.591,300.027 163.736,299.447 C164.899,294.845 166.044,290.243 167.173,285.641 C167.454,284.491 166.604,283.462 165.251,283.295 C160.964,282.784 156.7,282.272 152.457,281.76 C151.092,281.595 149.66,282.39 149.224,283.548 C148.512,285.975 147.795,288.402 147.074,290.829 C146.854,291.41 146.932,292.011 147.292,292.479 C147.654,292.948 148.276,293.249 148.995,293.309 C150.8,293.457 152.606,293.608 154.416,293.758 C155.871,293.879 157.313,293.017 157.634,291.837 C157.958,290.655 157.053,289.599 155.623,289.479" fill="#AB2430" id="path70381"/>
    <path d="M279.708,288.901 C278.852,289.009 277.994,289.115 277.134,289.221 C276.909,288.245 276.685,287.271 276.459,286.295 C278.959,286.071 281.455,285.847 283.942,285.624 C284.978,288.798 286.025,291.976 287.083,295.149 C281.282,295.744 275.449,296.338 269.583,296.932 C268.145,291.269 266.737,285.604 265.358,279.941 C273.745,279.12 282.063,278.298 290.313,277.477 C292.45,283.877 294.627,290.278 296.845,296.678 C297.268,297.854 298.794,298.667 300.245,298.492 C301.694,298.317 302.501,297.222 302.056,296.043 C299.473,288.957 296.942,281.869 294.461,274.783 C294.041,273.632 292.674,272.827 291.36,272.961 C281.628,273.943 271.799,274.925 261.875,275.908 C261.209,275.973 260.62,276.268 260.236,276.72 C259.853,277.174 259.708,277.755 259.836,278.325 C261.438,285.42 263.085,292.515 264.779,299.61 C265.059,300.79 266.487,301.622 267.974,301.476 C275.739,300.7 283.45,299.926 291.104,299.152 C291.825,299.08 292.425,298.779 292.795,298.314 C293.163,297.851 293.251,297.271 293.049,296.694 C291.441,292.111 289.856,287.527 288.295,282.943 C287.904,281.8 286.538,280.996 285.185,281.12 C280.917,281.517 276.628,281.912 272.325,282.31 C270.94,282.435 270.03,283.472 270.277,284.645 C270.981,287.057 271.694,289.47 272.414,291.882 C272.542,292.47 272.96,293.014 273.578,293.383 C274.195,293.747 274.957,293.905 275.671,293.817 C277.465,293.6 279.257,293.381 281.043,293.162 C282.482,292.988 283.333,291.891 282.953,290.715 C282.572,289.536 281.123,288.727 279.708,288.901" fill="#AB2430" id="path70383"/>
    <path d="M196.82,292.87 C195.925,292.854 195.031,292.839 194.135,292.823 C194.298,291.851 194.462,290.88 194.623,289.906 C197.189,290.037 199.759,290.169 202.331,290.298 C202.111,293.495 201.888,296.694 201.665,299.892 C195.634,299.681 189.617,299.472 183.612,299.261 C184.467,293.577 185.31,287.892 186.139,282.207 C194.698,282.597 203.29,282.988 211.913,283.377 C211.562,289.81 211.2,296.241 210.822,302.674 C210.768,303.858 211.969,304.841 213.503,304.865 C215.037,304.892 216.303,303.949 216.333,302.766 C216.619,295.642 216.891,288.519 217.149,281.396 C217.173,280.235 216.102,279.269 214.724,279.204 C204.525,278.736 194.371,278.267 184.264,277.798 C183.588,277.768 182.897,277.968 182.348,278.351 C181.802,278.738 181.437,279.282 181.345,279.854 C180.193,286.976 179.02,294.099 177.828,301.22 C177.626,302.405 178.689,303.398 180.207,303.453 C188.138,303.729 196.088,304.004 204.06,304.279 C204.808,304.306 205.534,304.099 206.091,303.7 C206.651,303.305 206.975,302.763 207.004,302.18 C207.255,297.564 207.5,292.946 207.742,288.329 C207.798,287.178 206.744,286.217 205.342,286.142 C200.915,285.92 196.496,285.701 192.088,285.479 C190.672,285.405 189.37,286.282 189.154,287.451 C188.908,289.885 188.662,292.316 188.416,294.75 C188.307,295.336 188.507,295.922 188.966,296.361 C189.43,296.799 190.121,297.053 190.862,297.066 C192.723,297.098 194.585,297.129 196.45,297.16 C197.945,297.19 199.234,296.247 199.321,295.063 C199.414,293.874 198.292,292.895 196.82,292.87" fill="#AB2430" id="path70385"/>
    <path d="M238.619,292.579 C237.731,292.653 236.845,292.729 235.956,292.803 C235.893,291.828 235.83,290.851 235.765,289.876 C238.335,289.743 240.899,289.612 243.461,289.479 C243.978,292.667 244.504,295.853 245.038,299.04 C239.053,299.425 233.046,299.813 227.019,300.197 C226.527,294.519 226.051,288.84 225.594,283.162 C234.203,282.652 242.77,282.145 251.296,281.635 C252.397,288.058 253.527,294.477 254.684,300.898 C254.913,302.077 256.322,302.938 257.827,302.813 C259.333,302.69 260.342,301.632 260.089,300.45 C258.681,293.342 257.306,286.231 255.966,279.123 C255.731,277.968 254.473,277.117 253.113,277.2 C243.047,277.807 232.92,278.413 222.735,279.02 C222.054,279.063 221.41,279.331 220.948,279.766 C220.488,280.202 220.246,280.774 220.282,281.349 C220.733,288.464 221.211,295.579 221.719,302.694 C221.804,303.877 223.101,304.752 224.626,304.656 C232.598,304.153 240.532,303.651 248.43,303.148 C249.172,303.103 249.836,302.83 250.291,302.379 C250.745,301.932 250.934,301.358 250.829,300.783 C249.977,296.182 249.144,291.581 248.329,286.979 C248.124,285.83 246.87,284.986 245.478,285.059 C241.077,285.295 236.666,285.53 232.245,285.767 C230.826,285.842 229.73,286.839 229.783,288.011 C230.095,290.434 230.412,292.856 230.736,295.278 C230.765,295.866 231.097,296.424 231.66,296.811 C232.22,297.197 232.965,297.379 233.702,297.316 C235.556,297.163 237.405,297.01 239.254,296.855 C240.737,296.732 241.788,295.676 241.6,294.494 C241.413,293.313 240.081,292.455 238.619,292.579" fill="#AB2430" id="path70387"/>
    <path d="M258.066,22.598 C258.607,22.651 259.146,22.702 259.685,22.757 C259.459,23.352 259.233,23.949 259.009,24.546 C257.475,24.338 255.937,24.13 254.393,23.923 C254.942,21.949 255.497,19.975 256.057,18.002 C259.687,18.421 263.297,18.84 266.889,19.259 C265.617,22.759 264.363,26.259 263.128,29.758 C258.028,29.088 252.875,28.414 247.674,27.741 C248.713,23.773 249.774,19.805 250.857,15.838 C251.044,15.107 250.447,14.441 249.512,14.351 C248.583,14.263 247.684,14.786 247.508,15.519 C246.388,19.914 245.295,24.309 244.23,28.706 C244.069,29.421 244.599,30.073 245.431,30.184 C251.587,30.99 257.674,31.796 263.692,32.601 C264.091,32.654 264.536,32.565 264.913,32.353 C265.291,32.14 265.58,31.82 265.709,31.465 C267.319,27.082 268.961,22.698 270.633,18.315 C270.914,17.585 270.411,16.914 269.502,16.812 C264.763,16.263 259.992,15.715 255.184,15.166 C254.733,15.112 254.265,15.206 253.871,15.427 C253.479,15.645 253.208,15.966 253.115,16.327 C252.35,19.176 251.595,22.028 250.85,24.879 C250.666,25.591 251.186,26.238 252.025,26.353 C254.687,26.711 257.333,27.067 259.966,27.424 C260.812,27.54 261.709,27.06 261.993,26.343 C262.458,24.841 262.925,23.337 263.395,21.836 C263.537,21.476 263.494,21.102 263.273,20.807 C263.053,20.511 262.669,20.319 262.223,20.277 C261.102,20.168 259.98,20.058 258.858,19.948 C257.952,19.86 257.049,20.383 256.837,21.112 C256.625,21.845 257.18,22.511 258.066,22.598" fill="#AB2430" id="path70389"/>
    <path d="M180.915,21.828 C181.449,21.77 181.983,21.71 182.519,21.653 C182.65,22.261 182.78,22.87 182.91,23.477 C181.354,23.594 179.801,23.71 178.251,23.827 C177.637,21.845 177.016,19.86 176.386,17.877 C179.999,17.56 183.631,17.243 187.282,16.927 C188.125,20.46 188.949,23.995 189.754,27.528 C184.534,27.963 179.354,28.398 174.217,28.834 C172.947,24.835 171.651,20.836 170.331,16.836 C170.079,16.101 169.138,15.583 168.234,15.678 C167.333,15.774 166.818,16.447 167.086,17.184 C168.627,21.613 170.135,26.043 171.613,30.47 C171.865,31.191 172.708,31.702 173.526,31.633 C179.586,31.111 185.705,30.588 191.886,30.069 C192.298,30.034 192.668,29.856 192.911,29.58 C193.152,29.3 193.249,28.941 193.174,28.585 C192.242,24.158 191.283,19.731 190.295,15.306 C190.13,14.57 189.251,14.04 188.325,14.117 C183.49,14.528 178.689,14.939 173.923,15.351 C173.474,15.39 173.098,15.571 172.864,15.856 C172.63,16.142 172.57,16.5 172.691,16.862 C173.65,19.725 174.593,22.589 175.521,25.454 C175.755,26.168 176.597,26.68 177.438,26.616 C180.097,26.407 182.766,26.2 185.446,25.994 C186.306,25.927 186.883,25.291 186.74,24.56 C186.324,23.053 185.902,21.547 185.477,20.042 C185.404,19.673 185.146,19.332 184.767,19.099 C184.387,18.865 183.915,18.759 183.469,18.809 C182.35,18.927 181.237,19.047 180.124,19.166 C179.228,19.262 178.688,19.937 178.915,20.67 C179.141,21.407 180.035,21.922 180.915,21.828" fill="#AB2430" id="path70391"/>
    <path d="M232.484,20.114 C233.042,20.133 233.597,20.149 234.153,20.168 C234.042,20.772 233.933,21.373 233.825,21.975 C232.23,21.872 230.633,21.767 229.037,21.664 C229.202,19.676 229.368,17.69 229.537,15.705 C233.284,15.89 237.022,16.076 240.754,16.261 C240.17,19.786 239.594,23.314 239.028,26.84 C233.71,26.52 228.373,26.199 223.014,25.878 C223.292,21.883 223.577,17.887 223.868,13.892 C223.911,13.156 223.174,12.534 222.222,12.505 C221.268,12.475 220.471,13.049 220.445,13.784 C220.2,18.211 219.966,22.637 219.742,27.064 C219.715,27.784 220.371,28.396 221.227,28.447 C227.567,28.831 233.875,29.215 240.154,29.599 C240.574,29.624 241.005,29.506 241.35,29.273 C241.693,29.036 241.926,28.702 241.988,28.347 C242.77,23.93 243.563,19.513 244.369,15.096 C244.505,14.361 243.853,13.734 242.911,13.685 C237.982,13.443 233.042,13.198 228.087,12.954 C227.623,12.931 227.168,13.053 226.819,13.295 C226.467,13.537 226.261,13.871 226.236,14.234 C226.04,17.102 225.847,19.97 225.654,22.837 C225.608,23.553 226.254,24.161 227.125,24.221 C229.876,24.398 232.62,24.573 235.359,24.751 C236.239,24.811 237.057,24.278 237.202,23.552 C237.376,22.043 237.552,20.531 237.726,19.021 C237.799,18.658 237.681,18.293 237.4,18.015 C237.114,17.739 236.687,17.574 236.228,17.561 C235.07,17.523 233.913,17.487 232.753,17.449 C231.823,17.418 231.013,17.992 230.951,18.728 C230.879,19.467 231.57,20.085 232.484,20.114" fill="#AB2430" id="path70393"/>
    <path d="M206.495,19.917 C207.047,19.877 207.6,19.838 208.152,19.8 C208.182,20.406 208.214,21.015 208.245,21.622 C206.646,21.68 205.05,21.74 203.457,21.798 C203.163,19.812 202.867,17.826 202.565,15.84 C206.289,15.653 210.026,15.469 213.775,15.284 C214.031,18.818 214.275,22.353 214.507,25.888 C209.15,26.127 203.818,26.365 198.514,26.604 C197.886,22.601 197.244,18.598 196.583,14.596 C196.45,13.862 195.583,13.314 194.645,13.378 C193.708,13.44 193.071,14.09 193.217,14.826 C194.029,19.259 194.818,23.69 195.586,28.123 C195.721,28.843 196.496,29.384 197.344,29.343 C203.608,29.059 209.909,28.775 216.247,28.49 C216.67,28.468 217.073,28.309 217.366,28.043 C217.655,27.773 217.81,27.421 217.793,27.064 C217.579,22.636 217.345,18.208 217.094,13.78 C217.051,13.043 216.254,12.489 215.303,12.534 C210.342,12.774 205.406,13.014 200.49,13.254 C200.028,13.276 199.612,13.439 199.327,13.716 C199.041,13.99 198.917,14.344 198.979,14.705 C199.465,17.572 199.941,20.44 200.406,23.307 C200.523,24.025 201.295,24.56 202.163,24.528 C204.9,24.422 207.644,24.314 210.395,24.207 C211.279,24.175 211.969,23.564 211.948,22.834 C211.774,21.327 211.6,19.817 211.42,18.309 C211.407,17.943 211.206,17.594 210.86,17.348 C210.515,17.102 210.055,16.983 209.594,17.014 C208.44,17.093 207.289,17.172 206.14,17.249 C205.215,17.314 204.552,17.962 204.659,18.697 C204.764,19.433 205.585,19.978 206.495,19.917" fill="#AB2430" id="path70395"/>
    <path d="M40.025,89.491 C40.171,89 40.314,88.512 40.456,88.024 C40.893,88.392 41.332,88.76 41.774,89.127 C41.329,90.504 40.873,91.887 40.406,93.272 C38.888,92.236 37.393,91.195 35.92,90.151 C37.014,86.872 38.049,83.616 39.027,80.373 C41.495,82.49 44.043,84.585 46.672,86.664 C45.341,91.248 43.889,95.875 42.309,100.551 C39.126,98.532 36.034,96.491 33.034,94.429 C32.48,94.059 31.802,94.441 31.51,95.287 C31.219,96.132 31.436,97.11 32.002,97.469 C35.38,99.678 38.868,101.862 42.465,104.021 C43.054,104.362 43.723,104.04 43.976,103.292 C45.844,97.762 47.532,92.294 49.051,86.894 C49.152,86.533 49.143,86.097 49.027,85.688 C48.909,85.277 48.693,84.925 48.429,84.71 C45.152,82.047 42,79.353 38.978,76.631 C38.476,76.177 37.879,76.468 37.633,77.289 C36.342,81.563 34.951,85.873 33.455,90.209 C33.312,90.62 33.285,91.082 33.376,91.506 C33.466,91.929 33.666,92.266 33.936,92.451 C36.081,93.922 38.273,95.379 40.51,96.83 C41.07,97.19 41.714,96.877 41.97,96.124 C42.77,93.737 43.539,91.362 44.273,88.999 C44.51,88.239 44.269,87.273 43.742,86.821 C42.614,85.989 41.501,85.155 40.402,84.319 C40.145,84.09 39.842,84.03 39.57,84.158 C39.297,84.286 39.075,84.593 38.956,84.998 C38.66,86.015 38.356,87.032 38.048,88.053 C37.8,88.87 38.038,89.855 38.589,90.245 C39.14,90.636 39.788,90.296 40.025,89.491" fill="#AB2430" id="path70397"/>
    <path d="M18.525,161.282 C18.649,160.767 18.774,160.253 18.899,159.737 C19.585,159.777 20.274,159.816 20.964,159.854 C20.557,161.338 20.146,162.818 19.731,164.296 C17.386,164.344 15.035,164.396 12.681,164.459 C13.687,161.003 14.672,157.529 15.634,154.039 C19.575,154.191 23.515,154.356 27.456,154.542 C26.278,159.529 25.053,164.479 23.785,169.387 C18.96,169.512 14.119,169.662 9.26,169.834 C8.364,169.877 7.43,170.616 7.176,171.483 C6.922,172.351 7.457,173.009 8.372,172.954 C13.843,172.69 19.286,172.455 24.707,172.25 C25.593,172.207 26.444,171.556 26.638,170.773 C28.073,164.981 29.45,159.134 30.76,153.229 C30.847,152.831 30.773,152.44 30.557,152.14 C30.339,151.842 29.996,151.655 29.606,151.633 C24.742,151.328 19.886,151.052 15.036,150.799 C14.229,150.757 13.376,151.438 13.122,152.323 C11.801,156.942 10.441,161.532 9.045,166.089 C8.913,166.516 8.961,166.917 9.179,167.211 C9.396,167.503 9.76,167.656 10.196,167.638 C13.654,167.503 17.103,167.382 20.54,167.273 C21.398,167.246 22.245,166.595 22.461,165.794 C23.142,163.259 23.812,160.711 24.468,158.155 C24.679,157.335 24.197,156.629 23.384,156.567 C21.669,156.558 19.949,156.553 18.232,156.55 C17.825,156.521 17.378,156.671 17.001,156.962 C16.626,157.257 16.347,157.67 16.239,158.098 C15.968,159.172 15.696,160.243 15.422,161.313 C15.199,162.174 15.722,162.856 16.587,162.84 C17.455,162.825 18.321,162.128 18.525,161.282" fill="#AB2430" id="path70399"/>
    <path d="M32.311,112.704 C32.464,112.189 32.617,111.677 32.77,111.163 C33.275,111.425 33.781,111.686 34.29,111.95 C33.813,113.408 33.327,114.869 32.831,116.333 C31.081,115.653 29.347,114.971 27.627,114.287 C28.806,110.842 29.931,107.399 31.007,103.967 C33.866,105.447 36.789,106.916 39.769,108.381 C38.35,113.258 36.821,118.154 35.185,123.069 C31.534,121.751 27.947,120.429 24.422,119.097 C23.77,118.86 22.995,119.383 22.686,120.264 C22.376,121.146 22.66,122.042 23.326,122.263 C27.302,123.663 31.35,125.055 35.471,126.439 C36.146,126.652 36.887,126.202 37.146,125.417 C39.061,119.605 40.823,113.82 42.432,108.062 C42.54,107.677 42.523,107.242 42.386,106.86 C42.248,106.477 42.002,106.171 41.705,106.02 C38.008,104.119 34.407,102.209 30.901,100.286 C30.319,99.962 29.637,100.405 29.36,101.272 C27.927,105.806 26.402,110.354 24.786,114.912 C24.634,115.34 24.614,115.794 24.73,116.186 C24.847,116.576 25.087,116.857 25.405,116.976 C27.919,117.92 30.465,118.863 33.042,119.799 C33.686,120.033 34.407,119.59 34.675,118.793 C35.517,116.274 36.33,113.759 37.113,111.251 C37.365,110.447 37.078,109.541 36.474,109.216 C35.187,108.65 33.908,108.087 32.64,107.522 C32.343,107.36 31.999,107.374 31.688,107.562 C31.379,107.754 31.128,108.11 31.001,108.536 C30.679,109.606 30.353,110.677 30.023,111.747 C29.754,112.606 30.05,113.516 30.688,113.771 C31.328,114.028 32.057,113.551 32.311,112.704" fill="#AB2430" id="path70401"/>
    <path d="M24.935,136.904 C25.065,136.379 25.195,135.854 25.323,135.327 C25.919,135.46 26.518,135.591 27.116,135.723 C26.702,137.23 26.283,138.734 25.857,140.239 C23.808,139.984 21.763,139.735 19.723,139.491 C20.752,135.969 21.751,132.43 22.717,128.883 C26.116,129.581 29.54,130.29 32.993,131.011 C31.788,136.072 30.516,141.11 29.178,146.125 C24.936,145.648 20.711,145.188 16.502,144.744 C15.728,144.672 14.882,145.337 14.617,146.229 C14.352,147.119 14.778,147.887 15.572,147.944 C20.317,148.363 25.078,148.801 29.855,149.259 C30.636,149.322 31.418,148.742 31.624,147.941 C33.155,142.021 34.596,136.066 35.94,130.077 C36.029,129.674 35.977,129.257 35.797,128.915 C35.616,128.572 35.319,128.334 34.976,128.256 C30.712,127.283 26.495,126.327 22.319,125.388 C21.627,125.231 20.87,125.83 20.616,126.727 C19.302,131.42 17.93,136.091 16.505,140.74 C16.372,141.18 16.389,141.61 16.564,141.95 C16.737,142.287 17.044,142.498 17.42,142.536 C20.418,142.842 23.42,143.159 26.431,143.483 C27.185,143.564 27.952,142.986 28.178,142.168 C28.885,139.588 29.574,136.996 30.245,134.401 C30.46,133.568 30.064,132.763 29.357,132.59 C27.858,132.353 26.362,132.115 24.87,131.881 C24.519,131.796 24.124,131.892 23.785,132.15 C23.446,132.407 23.192,132.804 23.081,133.244 C22.803,134.34 22.521,135.435 22.236,136.53 C22.007,137.408 22.43,138.198 23.183,138.293 C23.935,138.392 24.721,137.769 24.935,136.904" fill="#AB2430" id="path70403"/>
    <path d="M414.022,162.922 C414.174,163.436 414.326,163.95 414.478,164.463 C413.757,164.428 413.04,164.394 412.319,164.362 C411.956,162.882 411.597,161.396 411.238,159.907 C413.505,159.84 415.779,159.778 418.051,159.717 C419.049,163.2 420.068,166.663 421.107,170.107 C416.811,169.948 412.533,169.815 408.267,169.695 C407.095,164.778 405.957,159.816 404.86,154.81 C409.319,154.611 413.774,154.433 418.232,154.276 C419.051,154.237 419.492,153.491 419.214,152.602 C418.937,151.716 418.065,151.035 417.261,151.086 C412.411,151.333 407.557,151.605 402.696,151.903 C401.909,151.963 401.416,152.644 401.579,153.444 C402.79,159.376 404.055,165.243 405.373,171.044 C405.458,171.431 405.718,171.815 406.092,172.102 C406.466,172.39 406.923,172.563 407.362,172.579 C412.783,172.788 418.23,173.027 423.702,173.294 C424.617,173.341 425.126,172.679 424.847,171.809 C423.408,167.267 422.001,162.691 420.639,158.084 C420.508,157.652 420.224,157.244 419.842,156.946 C419.459,156.648 419.025,156.494 418.62,156.508 C415.393,156.633 412.17,156.768 408.943,156.911 C408.14,156.949 407.652,157.617 407.831,158.429 C408.413,160.992 409.005,163.545 409.606,166.086 C409.798,166.904 410.653,167.594 411.534,167.645 C413.332,167.636 415.124,167.629 416.919,167.627 C417.359,167.653 417.745,167.504 417.971,167.215 C418.197,166.925 418.247,166.516 418.114,166.086 C417.78,165.02 417.45,163.949 417.121,162.877 C416.858,162.018 415.955,161.331 415.11,161.352 C414.26,161.369 413.775,162.073 414.022,162.922" fill="#AB2430" id="path70405"/>
    <path d="M391.639,91.324 C391.8,91.801 391.963,92.28 392.127,92.758 C391.662,93.056 391.195,93.353 390.725,93.654 C390.298,92.247 389.882,90.847 389.476,89.444 C390.945,88.298 392.387,87.144 393.806,85.982 C394.836,89.232 395.926,92.502 397.076,95.786 C394.395,97.595 391.645,99.391 388.823,101.168 C387.329,96.463 385.954,91.798 384.696,87.175 C387.675,84.832 390.553,82.467 393.328,80.079 C393.836,79.629 394.031,78.606 393.774,77.799 C393.517,76.993 392.909,76.715 392.409,77.176 C389.382,79.895 386.225,82.584 382.944,85.245 C382.413,85.688 382.138,86.615 382.331,87.352 C383.758,92.805 385.346,98.313 387.107,103.877 C387.226,104.252 387.459,104.541 387.75,104.686 C388.043,104.826 388.375,104.811 388.664,104.639 C392.27,102.485 395.77,100.302 399.156,98.098 C399.72,97.73 399.925,96.762 399.625,95.927 C398.055,91.577 396.591,87.255 395.23,82.966 C395.103,82.563 394.882,82.266 394.612,82.134 C394.342,82.002 394.055,82.05 393.802,82.269 C391.801,83.988 389.747,85.7 387.637,87.395 C387.113,87.819 386.861,88.748 387.071,89.508 C387.748,91.906 388.454,94.315 389.191,96.733 C389.426,97.51 390.083,97.857 390.66,97.514 C391.823,96.687 392.969,95.856 394.104,95.023 C394.385,94.849 394.606,94.512 394.709,94.093 C394.809,93.672 394.786,93.204 394.645,92.806 C394.291,91.805 393.945,90.81 393.603,89.816 C393.328,89.016 392.677,88.714 392.139,89.137 C391.6,89.56 391.374,90.538 391.639,91.324" fill="#AB2430" id="path70407"/>
    <path d="M407.326,138.531 C407.496,139.052 407.665,139.57 407.836,140.089 C407.212,140.164 406.588,140.237 405.96,140.313 C405.534,138.808 405.114,137.304 404.698,135.792 C406.658,135.365 408.61,134.939 410.552,134.517 C411.661,138.035 412.807,141.549 413.987,145.057 C410.3,145.543 406.592,146.044 402.865,146.547 C401.44,141.536 400.086,136.503 398.808,131.453 C402.688,130.543 406.528,129.639 410.329,128.743 C411.027,128.568 411.35,127.706 411.054,126.817 C410.76,125.925 409.971,125.355 409.291,125.544 C405.16,126.611 400.976,127.687 396.736,128.769 C396.053,128.958 395.657,129.742 395.849,130.55 C397.28,136.523 398.813,142.473 400.447,148.395 C400.558,148.791 400.816,149.155 401.164,149.403 C401.519,149.654 401.936,149.771 402.316,149.723 C407.067,149.157 411.79,148.601 416.491,148.059 C417.273,147.97 417.647,147.185 417.334,146.298 C415.705,141.669 414.139,137.025 412.645,132.372 C412.504,131.934 412.232,131.55 411.884,131.298 C411.541,131.046 411.158,130.951 410.811,131.034 C408.063,131.69 405.292,132.346 402.502,133.008 C401.806,133.174 401.424,133.948 401.637,134.771 C402.322,137.367 403.022,139.959 403.742,142.545 C403.971,143.374 404.77,143.976 405.537,143.897 C407.092,143.62 408.643,143.34 410.19,143.061 C410.571,143.021 410.886,142.806 411.061,142.466 C411.229,142.12 411.239,141.677 411.091,141.246 C410.72,140.164 410.352,139.083 409.988,138.003 C409.698,137.133 408.871,136.551 408.144,136.705 C407.417,136.857 407.046,137.676 407.326,138.531" fill="#AB2430" id="path70409"/>
    <g clip-path="url(#Clip_1)" id="g70415">
      <path d="M399.544,114.431 C399.731,114.93 399.921,115.43 400.113,115.929 C399.579,116.134 399.047,116.341 398.514,116.547 C398.018,115.086 397.536,113.627 397.06,112.167 C398.73,111.319 400.379,110.464 402.006,109.604 C403.215,112.994 404.482,116.399 405.806,119.813 C402.711,121.083 399.566,122.34 396.365,123.585 C394.664,118.701 393.081,113.838 391.606,108.999 C394.955,107.251 398.223,105.488 401.408,103.708 C401.99,103.373 402.208,102.409 401.899,101.56 C401.59,100.712 400.885,100.31 400.315,100.662 C396.846,102.706 393.274,104.731 389.602,106.735 C389.007,107.072 388.71,107.946 388.935,108.717 C390.607,114.429 392.437,120.173 394.426,125.954 C394.562,126.342 394.822,126.666 395.15,126.857 C395.484,127.048 395.858,127.089 396.187,126.968 C400.272,125.477 404.281,123.969 408.207,122.442 C408.86,122.189 409.1,121.289 408.754,120.423 C406.946,115.904 405.242,111.407 403.632,106.931 C403.483,106.511 403.225,106.173 402.911,105.99 C402.598,105.805 402.264,105.794 401.977,105.955 C399.674,107.243 397.334,108.521 394.949,109.791 C394.354,110.107 394.078,110.977 394.325,111.771 C395.111,114.271 395.928,116.778 396.773,119.293 C397.045,120.1 397.792,120.561 398.45,120.325 C399.772,119.725 401.084,119.124 402.384,118.519 C402.708,118.4 402.961,118.111 403.08,117.718 C403.196,117.328 403.165,116.867 403.002,116.45 C402.592,115.407 402.19,114.365 401.793,113.321 C401.473,112.488 400.724,112.063 400.109,112.376 C399.492,112.689 399.237,113.607 399.544,114.431" fill="#AB2430" id="path70411"/>
      <path d="M386.424,245.412 C333.103,294.896 312.663,314.925 221.839,316.832 L221.818,316.794 C117.994,316.794 101.661,297.111 45.557,245.045 C-10.547,192.98 0.972,157.716 17.738,112.721 C34.506,67.727 43.444,64.145 88.585,36.505 C138.885,10.152 141.228,8.262 215.387,8.262 C289.547,8.262 293.483,10.046 343.783,36.399 C388.922,64.04 398.21,67.727 414.978,112.721 C431.743,157.716 442.529,193.347 386.424,245.412 M418.413,111.44 C402.395,68.454 392.229,62.276 354.41,39.289 C351.545,37.549 348.519,35.709 345.311,33.745 L345.099,33.623 C294.569,7.15 291.544,5.565 216.358,5.565 C141.171,5.565 138.146,7.15 87.618,33.623 L87.404,33.745 C84.197,35.709 81.169,37.549 78.305,39.289 C40.485,62.276 30.321,68.454 14.302,111.44 C6.445,132.528 -1.68,154.332 0.302,176.918 C2.422,201.09 15.777,223.825 42.329,248.467 L48.418,254.128 C94.107,299.012 118.687,322.297 220.761,322.536 C221.102,322.641 221.466,322.697 221.839,322.697 L221.916,322.696 C317.91,319.71 335.883,299.05 389.562,249.232 L390.387,248.467 C416.939,223.825 430.293,201.09 432.415,176.918 C434.397,154.332 426.27,132.528 418.413,111.44" fill="#1A1919" id="path70413"/>
    </g>
    <path d="M344.996,212.554 C304.72,250.259 289.282,265.518 220.681,266.97 L220.841,267.157 C142.421,267.157 129.908,251.944 87.533,212.275 C45.156,172.604 53.856,145.739 66.52,111.458 C79.186,77.176 85.936,74.449 120.032,53.388 C158.025,33.308 159.794,31.868 215.809,31.868 C271.821,31.868 274.795,33.228 312.788,53.307 C346.884,74.365 353.897,77.176 366.562,111.458 C379.226,145.739 387.372,172.884 344.996,212.554 M369.156,110.481 C357.058,77.728 349.38,73.021 320.815,55.51 C318.651,54.184 316.364,52.779 313.942,51.285 L313.78,51.192 C275.614,31.022 273.331,29.815 216.54,29.815 C159.751,29.815 157.466,31.022 119.3,51.192 L119.139,51.285 C116.717,52.779 114.43,54.184 112.267,55.51 C83.702,73.021 76.023,77.728 63.925,110.481 C57.99,126.548 51.852,143.16 53.35,160.37 C54.952,178.786 65.038,196.105 85.094,214.883 L89.692,219.193 C124.203,253.393 142.768,271.134 219.867,271.314 C220.125,271.395 220.398,271.438 220.681,271.438 L220.74,271.438 C293.244,269.161 306.819,253.421 347.366,215.466 L347.988,214.883 C368.042,196.105 378.13,178.786 379.731,160.37 C381.228,143.16 375.091,126.548 369.156,110.481" fill="#1A1919" id="path70417"/>
    <path d="M203.38,20.321 C197.849,20.824 191.451,20.748 188.042,27.565 C184.633,34.381 191.024,40.347 198.269,41.626 C205.512,42.904 214.885,38.644 215.738,31.826 C216.589,25.008 208.068,19.895 203.38,20.321" fill="#0B8B42" id="path70419"/>
    <path d="M211.903,36.939 C207.215,42.052 196.137,40.773 192.303,37.791 C188.468,34.809 187.19,32.251 190.599,26.286 C194.007,20.321 203.903,20.89 208.068,22.452 C214.885,25.008 216.589,31.826 211.903,36.939 z M201.25,18.901 C192.544,18.901 186.196,24.39 186.196,31.685 C186.196,38.979 192.829,43.045 201.536,43.045 C210.242,43.045 216.589,37.843 216.589,30.548 C216.589,23.252 209.958,18.901 201.25,18.901" fill="#1A1919" id="path70421"/>
    <path d="M198.476,22.452 C193.252,22.3 196.208,30.956 205.844,33.222 C215.48,35.489 217.748,23.019 198.476,22.452" fill="#6CB644" id="path70423"/>
    <path d="M222.872,17.071 C217.339,17.574 210.942,17.499 207.533,24.316 C204.123,31.132 210.515,37.098 217.758,38.377 C225.001,39.655 234.376,35.395 235.227,28.577 C236.08,21.759 227.557,16.646 222.872,17.071" fill="#0B8B42" id="path70425"/>
    <path d="M231.393,33.689 C226.707,38.803 215.626,37.524 211.792,34.542 C207.959,31.559 206.68,29.002 210.088,23.037 C213.498,17.071 223.392,17.641 227.557,19.203 C234.376,21.759 236.08,28.577 231.393,33.689 z M220.741,15.652 C212.035,15.652 205.686,21.14 205.686,28.435 C205.686,35.73 212.319,39.796 221.026,39.796 C229.732,39.796 236.08,34.594 236.08,27.299 C236.08,20.002 229.447,15.652 220.741,15.652" fill="#1A1919" id="path70427"/>
    <path d="M217.966,19.203 C212.742,19.051 215.697,27.706 225.334,29.973 C234.969,32.24 237.237,19.77 217.966,19.203" fill="#6CB644" id="path70429"/>
    <path d="M242.824,22.64 C237.291,23.143 230.893,23.067 227.484,29.884 C224.077,36.701 230.466,42.666 237.711,43.945 C244.955,45.223 254.328,40.963 255.181,34.145 C256.033,27.327 247.511,22.214 242.824,22.64" fill="#0B8B42" id="path70431"/>
    <path d="M251.345,39.258 C246.658,44.371 235.581,43.093 231.746,40.11 C227.911,37.127 226.632,34.57 230.042,28.605 C233.449,22.64 243.346,23.21 247.511,24.772 C254.328,27.327 256.033,34.145 251.345,39.258 z M240.692,21.221 C231.986,21.221 225.639,26.708 225.639,34.003 C225.639,41.298 232.272,45.365 240.978,45.365 C249.684,45.365 256.033,40.162 256.033,32.867 C256.033,25.571 249.401,21.221 240.692,21.221" fill="#1A1919" id="path70433"/>
    <path d="M237.919,24.772 C232.696,24.619 235.652,33.275 245.288,35.541 C254.923,37.809 257.191,25.338 237.919,24.772" fill="#6CB644" id="path70435"/>
    <path d="M251.64,33.776 C246.108,34.279 239.71,34.204 236.301,41.021 C232.892,47.837 239.284,53.803 246.527,55.082 C253.77,56.36 263.145,52.1 263.997,45.282 C264.848,38.464 256.326,33.351 251.64,33.776" fill="#0B8B42" id="path70437"/>
    <path d="M260.163,50.395 C255.475,55.508 244.395,54.23 240.562,51.247 C236.728,48.264 235.449,45.707 238.857,39.742 C242.266,33.776 252.161,34.346 256.326,35.908 C263.145,38.464 264.848,45.282 260.163,50.395 z M249.51,32.357 C240.804,32.357 234.456,37.845 234.456,45.14 C234.456,52.435 241.088,56.502 249.795,56.502 C258.501,56.502 264.848,51.299 264.848,44.004 C264.848,36.707 258.215,32.357 249.51,32.357" fill="#1A1919" id="path70439"/>
    <path d="M246.735,35.908 C241.51,35.756 244.466,44.412 254.103,46.678 C263.738,48.945 266.005,36.475 246.735,35.908" fill="#6CB644" id="path70441"/>
    <path d="M238.025,48.349 C232.492,48.852 226.094,48.775 222.685,55.593 C219.277,62.41 225.667,68.375 232.911,69.654 C240.154,70.932 249.529,66.671 250.381,59.853 C251.234,53.036 242.711,47.923 238.025,48.349" fill="#0B8B42" id="path70443"/>
    <path d="M246.546,64.967 C241.859,70.08 230.781,68.802 226.946,65.819 C223.112,62.836 221.833,60.279 225.242,54.314 C228.65,48.349 238.545,48.918 242.711,50.481 C249.529,53.036 251.234,59.853 246.546,64.967 M235.893,46.929 C227.187,46.929 220.838,52.418 220.838,59.712 C220.838,67.007 227.473,71.073 236.179,71.073 C244.885,71.073 251.234,65.871 251.234,58.576 C251.234,51.28 244.601,46.929 235.893,46.929" fill="#1A1919" id="path70445"/>
    <path d="M233.12,50.481 C227.896,50.328 230.851,58.984 240.489,61.25 C250.123,63.518 252.39,51.047 233.12,50.481" fill="#6CB644" id="path70447"/>
    <path d="M189.46,33.776 C183.928,34.279 177.53,34.204 174.121,41.021 C170.712,47.837 177.104,53.803 184.347,55.082 C191.59,56.36 200.964,52.1 201.817,45.282 C202.668,38.464 194.147,33.351 189.46,33.776" fill="#0B8B42" id="path70449"/>
    <path d="M197.982,50.395 C193.294,55.508 182.216,54.23 178.382,51.247 C174.547,48.264 173.269,45.707 176.678,39.742 C180.086,33.776 189.981,34.346 194.147,35.908 C200.964,38.464 202.668,45.282 197.982,50.395 z M187.329,32.357 C178.624,32.357 172.275,37.845 172.275,45.14 C172.275,52.435 178.908,56.502 187.615,56.502 C196.321,56.502 202.668,51.299 202.668,44.004 C202.668,36.707 196.037,32.357 187.329,32.357" fill="#1A1919" id="path70451"/>
    <path d="M184.555,35.908 C179.332,35.756 182.287,44.412 191.923,46.678 C201.559,48.945 203.827,36.475 184.555,35.908" fill="#6CB644" id="path70453"/>
    <path d="M211.733,45.377 C206.202,45.88 199.804,45.804 196.394,52.622 C192.986,59.438 199.377,65.403 206.622,66.682 C213.865,67.961 223.238,63.7 224.09,56.882 C224.942,50.064 216.42,44.951 211.733,45.377" fill="#0B8B42" id="path70455"/>
    <path d="M220.255,61.995 C215.568,67.108 204.49,65.83 200.656,62.847 C196.821,59.865 195.542,57.308 198.951,51.342 C202.36,45.377 212.255,45.946 216.42,47.508 C223.238,50.064 224.942,56.882 220.255,61.995 M209.603,43.957 C200.897,43.957 194.549,49.446 194.549,56.741 C194.549,64.036 201.181,68.102 209.888,68.102 C218.594,68.102 224.942,62.899 224.942,55.604 C224.942,48.308 218.31,43.957 209.603,43.957" fill="#1A1919" id="path70457"/>
    <path d="M206.828,47.508 C201.605,47.356 204.56,56.012 214.197,58.278 C223.833,60.546 226.1,48.075 206.828,47.508" fill="#6CB644" id="path70459"/>
    <path d="M208.949,33.776 C203.417,34.279 197.02,34.204 193.61,41.021 C190.202,47.837 196.593,53.803 203.837,55.082 C211.081,56.36 220.454,52.1 221.306,45.282 C222.158,38.464 213.636,33.351 208.949,33.776" fill="#0B8B42" id="path70461"/>
    <path d="M217.471,50.395 C212.784,55.508 201.706,54.23 197.872,51.247 C194.037,48.264 192.758,45.707 196.167,39.742 C199.575,33.776 209.471,34.346 213.636,35.908 C220.454,38.464 222.158,45.282 217.471,50.395 z M206.819,32.357 C198.113,32.357 191.765,37.845 191.765,45.14 C191.765,52.435 198.396,56.502 207.104,56.502 C215.81,56.502 222.158,51.299 222.158,44.004 C222.158,36.707 215.526,32.357 206.819,32.357" fill="#1A1919" id="path70463"/>
    <path d="M204.043,35.908 C198.821,35.756 201.776,44.412 211.413,46.678 C221.048,48.945 223.316,36.475 204.043,35.908" fill="#6CB644" id="path70465"/>
    <path d="M228.438,29.137 C222.907,29.64 216.508,29.564 213.099,36.381 C209.691,43.198 216.082,49.163 223.327,50.442 C230.57,51.72 239.943,47.46 240.795,40.642 C241.647,33.824 233.125,28.711 228.438,29.137" fill="#0B8B42" id="path70467"/>
    <path d="M236.96,45.755 C232.273,50.868 221.195,49.59 217.361,46.607 C213.526,43.624 212.247,41.067 215.657,35.102 C219.065,29.137 228.96,29.706 233.125,31.269 C239.943,33.824 241.647,40.642 236.96,45.755 z M226.308,27.717 C217.602,27.717 211.254,33.206 211.254,40.5 C211.254,47.795 217.886,51.861 226.593,51.861 C235.299,51.861 241.647,46.659 241.647,39.364 C241.647,32.068 235.015,27.717 226.308,27.717" fill="#1A1919" id="path70469"/>
    <path d="M223.533,31.269 C218.31,31.116 221.265,39.772 230.902,42.038 C240.538,44.306 242.805,31.835 223.533,31.269" fill="#6CB644" id="path70471"/>
    <path d="M220.841,267.157 C142.421,267.157 129.908,251.944 87.533,212.275 C86.066,210.902 84.659,209.543 83.313,208.2 C75.414,198.396 68.48,188.279 63.882,180.499 C54.834,165.187 62.491,146.393 61.098,132.472 C60.787,129.358 62.322,124.293 64.892,118.307 C64.468,122.93 65.067,127.697 66.463,128.62 C64.086,131.446 61.711,142.611 67.415,145.908 C65.988,147.792 65.988,152.504 65.514,157.685 C63.613,160.039 60.761,168.049 63.613,171.817 C64.183,172.571 64.81,172.872 65.448,172.872 C68.003,172.872 70.741,168.049 70.741,168.049 C70.741,168.049 68.268,174.395 72.048,174.395 C72.822,174.395 73.857,174.129 75.23,173.488 C73.33,177.257 77.394,179.284 80.721,183.524 C76.919,188.706 82.147,195.771 89.752,197.655 C86.9,205.664 94.503,210.375 99.731,211.318 C97.831,218.384 105.223,226.32 113.3,227.733 C113.3,231.598 116.461,237.811 123.857,237.811 C124.575,237.811 125.333,237.752 126.132,237.627 C126.911,242.257 134.706,246.256 141.418,246.256 C142.9,246.256 144.329,246.061 145.618,245.635 C145.618,249.863 149.468,252.519 154.04,252.519 C156.092,252.519 158.289,251.984 160.35,250.816 C161.2,255.87 166.103,257.384 171.132,257.384 C174.54,257.384 178.007,256.689 180.311,255.928 C180.311,260.027 187.557,261.897 193.896,261.897 C196.301,261.897 198.574,261.628 200.273,261.11 C202.217,263.199 204.993,263.972 207.936,263.972 C213.623,263.972 219.941,261.088 222.133,259.226 C224.177,260.914 226.038,261.574 227.89,261.574 C231.207,261.574 234.497,259.458 238.767,257.342 C239.508,260.647 242.467,261.816 246.364,261.816 C252.464,261.816 260.865,258.953 266.664,256.941 C266.664,259.192 267.678,260.103 269.23,260.103 C273.202,260.103 280.699,254.144 283.774,249.403 C284.552,250.561 285.731,251.048 287.156,251.048 C292.688,251.048 301.952,243.728 306.11,239.982 C306.393,239.994 306.673,239.999 306.946,239.999 C318.119,239.999 320.721,230.721 324.432,225.662 C324.534,225.675 324.638,225.681 324.744,225.681 C328.586,225.681 334.887,217.502 334.887,212.001 C334.887,212.001 342.016,208.233 345.82,202.58 C351.521,202.58 355.324,189.86 358.174,183.736 C361.027,182.322 362.927,171.961 361.502,169.133 C361.502,169.133 365.303,165.836 366.731,160.182 C368.156,154.529 363.403,146.051 363.403,146.051 C363.403,146.051 363.403,146.051 367.207,149.349 C367.497,149.601 367.737,149.718 367.932,149.718 C370.279,149.719 365.987,132.678 364.232,130.504 C365.181,128.15 364.232,117.314 360.431,115.9 C361.859,114.999 362.657,113.43 362.996,111.596 C364.433,115.159 365.669,118.48 366.663,121.335 C372.231,137.345 366.663,163.794 364.575,179.804 C362.487,195.813 347.173,206.253 344.996,212.554 C304.72,250.259 289.282,265.518 220.681,266.97 L220.841,267.157 M103.356,209.436 C103.293,209.372 103.234,209.302 103.181,209.225 C103.24,209.238 103.299,209.251 103.359,209.264 C103.358,209.321 103.357,209.379 103.356,209.436 M69.369,108.869 C69.543,108.529 69.717,108.191 69.893,107.85 C69.863,108.231 69.83,108.563 69.791,108.835 C69.647,108.835 69.507,108.846 69.369,108.869 M356.356,99.439 C356.341,99.135 356.373,98.826 356.456,98.519 C356.558,98.139 356.629,97.749 356.674,97.354 C356.74,97.49 356.807,97.626 356.873,97.762 C356.862,97.811 356.849,97.859 356.836,97.908 C356.699,98.421 356.515,98.939 356.356,99.439" fill="#CACBCA" id="path70473"/>
    <path d="M205.304,268.314 C196.97,268.314 189.118,268.036 182.21,267.505 C146.016,264.721 124.439,246.624 107.733,233.398 C99.515,226.893 90.962,217.693 83.313,208.2 C84.659,209.543 86.066,210.902 87.533,212.275 C129.908,251.944 142.421,267.157 220.841,267.157 L220.681,266.97 C289.282,265.518 304.72,250.259 344.996,212.554 C342.818,218.855 326.292,236.879 303.323,251.496 C284.737,263.324 240.637,268.315 205.304,268.314" fill="#1A1919" id="path70475"/>
    <path d="M340.213,72.426 C339.824,72.171 339.456,71.845 339.166,71.479 C339.516,71.78 339.866,72.097 340.213,72.426" fill="#CACBCA" id="path70477"/>
    <path d="M185.078,256.042 C184.735,255.978 184.489,255.874 184.346,255.716 C184.345,255.697 184.344,255.679 184.343,255.659 C184.583,255.797 184.828,255.924 185.078,256.042 z M255.849,233.435 C255.849,233.435 255.136,227.076 250.86,224.25 C250.248,223.846 249.506,223.673 248.676,223.673 C243.7,223.673 235.583,229.902 233.75,229.902 C231.611,229.902 225.197,226.369 222.345,226.369 C219.493,226.369 210.939,232.023 210.939,232.023 C210.939,232.023 208.087,227.783 205.235,226.369 C204.975,226.241 204.693,226.182 204.393,226.182 C201.393,226.182 196.681,232.023 196.681,232.023 C196.681,232.023 190.266,227.076 187.414,225.662 C187.176,225.544 186.885,225.491 186.549,225.491 C182.855,225.491 173.869,232.023 173.869,232.023 C173.869,232.023 173.156,224.956 169.592,224.25 C169.401,224.212 169.197,224.194 168.983,224.194 C167.602,224.194 165.785,224.929 164.037,225.663 C162.289,226.397 160.609,227.131 159.502,227.131 C158.691,227.131 158.186,226.737 158.186,225.662 C158.186,223.781 155.942,223.013 153.445,222.74 C156.252,222.169 157.7,221.527 158.225,221.035 C158.747,220.87 159.288,220.686 159.849,220.481 C160.294,218.716 158.89,216.685 156.929,216.685 C156.796,216.685 156.661,216.694 156.523,216.714 C156.227,216.756 155.919,216.776 155.604,216.776 C152.389,216.776 148.486,214.688 149.156,212.474 C149.825,210.264 150.258,207.967 146.41,207.967 C146.156,207.967 145.884,207.977 145.592,207.998 C145.186,208.027 144.795,208.041 144.42,208.041 C138.655,208.041 136.547,204.778 136.324,202.346 C136.2,200.988 134.705,200.665 133.311,200.665 C132.044,200.665 130.86,200.932 130.86,200.932 C130.86,200.932 130.705,202.545 131.068,204.577 C130.75,205.512 130.527,206.322 130.388,207.013 L131.04,207.633 C131.447,209.405 132.948,211.483 135.221,212.786 C133.131,212.839 131.358,212.944 130.384,212.944 C126.82,212.944 121.83,210.116 123.968,204.464 C126.106,198.812 115.414,191.038 111.85,184.679 C111.85,181.318 110.705,180.416 109.149,180.416 C108.247,180.416 107.206,180.719 106.17,181.022 C105.134,181.325 104.102,181.628 103.217,181.628 C102.339,181.628 101.606,181.33 101.156,180.438 C101.156,175.492 96.167,175.492 92.602,171.961 C94.74,165.6 92.602,159.24 86.186,157.119 C79.771,155 84.047,152.881 81.909,141.575 C81.09,137.247 79.645,136.232 78.173,136.232 C77.523,136.232 76.868,136.43 76.259,136.628 C75.65,136.825 75.087,137.023 74.623,137.023 C73.855,137.023 73.354,136.483 73.354,134.509 C73.354,130.531 72.451,129.465 71.661,129.292 C71.731,128.883 71.737,128.463 71.676,128.044 C71.55,127.177 71.141,126.382 70.522,125.775 C69.519,123.307 68.411,114.855 70.004,112.794 C71.737,112.529 73.132,111.169 73.388,109.401 C73.494,108.652 73.552,107.731 73.626,106.566 C73.977,100.918 74.621,97.635 75.542,96.8 C77.35,96.597 78.805,95.219 79.084,93.427 C79.969,87.726 80.755,80.043 86.285,77.645 C87.278,77.214 88.056,76.405 88.442,75.4 C92.228,65.548 95.143,64.284 97.611,64.284 C97.806,64.284 98.804,62.706 99.014,62.706 C99.015,62.706 99.016,62.706 99.017,62.706 C99.018,62.706 99.019,62.706 99.02,62.706 C99.155,62.706 100.845,62.318 100.947,62.318 C101.893,62.318 102.36,62.702 102.721,62.702 C102.965,62.702 103.161,62.527 103.425,61.94 C106.856,54.285 109.589,51.568 111.578,51.568 L111.828,51.58 C111.963,51.594 112.097,51.601 112.23,51.601 C113.535,51.601 115.58,48.973 116.34,47.903 C120.717,41.755 123.286,41.683 124.525,41.541 C124.905,41.655 125.293,41.709 125.676,41.709 C127.1,41.709 131.297,39.358 132.032,38.064 C135.507,31.941 141.849,27.821 143.434,27.454 C144.569,27.399 145.634,26.872 146.361,25.998 C150.642,20.847 154.564,18.122 157.701,18.122 C158.211,18.122 158.698,18.193 159.189,18.338 C159.573,18.453 159.964,18.508 160.35,18.508 C161.62,18.508 162.845,17.914 163.619,16.856 C166.331,13.162 170.148,11.174 173.344,11.174 C174.109,11.174 174.827,11.305 175.533,11.575 C176.003,11.754 176.495,11.842 176.984,11.842 C177.773,11.842 178.553,11.613 179.226,11.168 L179.718,10.844 C182.298,9.127 186.197,6.937 189.854,6.937 C191.66,6.937 193.218,7.558 194.759,8.895 C195.4,9.451 196.196,9.488 197.032,9.488 C197.161,9.488 197.29,9.487 197.42,9.487 C197.548,9.487 197.676,9.48 197.807,9.467 C198.913,9.362 199.927,8.81 200.61,7.94 C201.826,6.393 206.108,4.144 210.052,4.144 C211.142,4.144 212.589,4.325 213.302,5.19 C214.09,6.144 215.249,6.659 216.431,6.659 C217.043,6.659 217.661,6.522 218.237,6.236 C220.795,4.97 225.297,3.205 229.142,3.205 C234.017,3.205 235.442,5.26 235.911,5.935 C236.676,7.04 237.932,8.473 239.242,8.473 C239.567,8.473 239.896,8.434 240.222,8.353 C241.978,7.918 244.156,7.669 246.196,7.669 C249.39,7.669 254.953,7.872 256.318,11.929 C256.664,12.954 257.411,13.799 258.394,14.268 C258.947,14.535 259.549,14.67 260.155,14.67 C260.62,14.67 261.087,14.589 261.533,14.427 C262.166,14.199 263.071,14.074 264.078,14.074 C268.352,14.074 272.455,15.691 272.963,16.741 C273.515,18.377 275.046,19.451 276.786,19.451 C280.28,19.451 286.503,22.844 287.657,26.562 C287.777,26.95 287.955,27.057 288.181,27.057 C288.322,27.057 288.482,27.015 288.659,26.973 C288.835,26.931 289.029,26.89 289.237,26.89 C289.421,26.89 289.616,26.922 289.821,27.016 C289.987,27.093 290.158,27.119 290.331,27.119 C290.717,27.119 291.117,26.987 291.518,26.987 C292.061,26.987 292.602,26.88 293.111,26.663 C293.426,26.529 293.73,26.464 294.039,26.464 C296.898,26.464 300.455,31.881 300.848,33.51 C301.036,34.626 304.117,37.19 305.08,37.802 C305.723,38.211 306.465,38.416 307.216,38.416 C307.584,38.416 307.953,38.366 308.318,38.268 C308.448,38.234 308.603,38.215 308.774,38.215 C311.82,38.215 314.83,42.438 314.83,44.296 C314.83,46.135 317.708,47.738 319.508,48.184 C324.095,49.321 325.052,52.367 324.748,57.237 C324.628,59.133 326.675,60.852 328.527,61.351 C331.41,62.132 335.589,64.879 337.681,67.272 C338.187,68.146 338.504,68.998 338.559,69.753 C338.565,69.831 338.568,69.908 338.568,69.984 C338.568,70.504 338.805,71.022 339.166,71.479 C339.456,71.845 339.824,72.171 340.213,72.426 C340.326,72.499 340.44,72.566 340.554,72.627 C340.885,72.901 341.247,73.135 341.616,73.318 C350.072,77.508 345.92,81.566 345.751,82.899 C345.608,84.039 348.392,85.186 349.159,86.046 C349.853,86.827 350.012,87.304 351.048,87.388 C352.324,87.952 355.302,90.918 356.493,94.102 C356.713,95.18 356.793,96.286 356.674,97.354 C356.629,97.749 356.558,98.139 356.456,98.519 C356.373,98.826 356.341,99.135 356.356,99.439 C355.938,100.752 355.695,101.936 356.946,102.541 C358.005,103.417 359.942,107.814 359.813,111.188 C359.782,112.022 359.588,112.449 359.474,112.521 C358.18,113.336 357.464,114.806 357.624,116.316 C357.772,117.733 358.667,118.958 359.962,119.544 C361.263,120.985 360.883,127.233 360.438,129.125 C359.98,130.359 360.165,131.737 360.926,132.808 C361.243,133.457 361.596,134.779 361.921,136.385 C361.738,136.262 361.567,136.204 361.406,136.204 C360.238,136.204 359.619,139.263 359.152,142.708 C359.046,142.778 358.942,142.854 358.84,142.935 C357.312,144.158 356.894,146.293 357.848,147.996 C358.005,148.277 358.178,148.609 358.36,148.981 C358.075,150.892 357.749,152.238 357.266,152.238 C357.206,152.238 357.144,152.217 357.079,152.174 C357.025,152.138 356.971,152.121 356.917,152.121 C355.91,152.121 354.77,158.015 353.85,163.908 C352.931,169.802 352.231,175.696 352.106,175.696 C352.093,175.696 352.086,175.63 352.086,175.492 C352.086,175.221 351.978,175.099 351.775,175.099 C350.898,175.099 348.253,177.374 344.962,179.649 C341.672,181.925 337.736,184.2 334.275,184.2 C333.661,184.2 333.061,184.128 332.483,183.972 C331.789,183.784 331.176,183.699 330.633,183.699 C327.934,183.699 326.967,185.807 326.397,187.915 C325.827,190.023 325.653,192.131 324.538,192.131 C324.459,192.131 324.375,192.121 324.286,192.099 C324.235,192.086 324.181,192.08 324.126,192.08 C322.683,192.08 319.758,196.276 316.931,200.473 C314.103,204.669 311.372,208.866 310.316,208.866 C310.199,208.866 310.102,208.814 310.028,208.704 C309.916,208.537 309.775,208.46 309.609,208.46 C307.665,208.46 302.262,219.061 298.978,220.363 C295.414,221.776 286.86,227.428 286.86,227.428 C286.86,227.428 281.156,227.076 271.889,227.076 C262.624,227.076 255.849,233.435 255.849,233.435 z M259.941,217.517 C258.064,217.517 256.654,217.745 256.712,219.331 C259.346,222.985 262.729,224.734 266.09,224.734 C269.506,224.734 272.899,222.927 275.454,219.479 C277.095,219.82 278.518,219.966 279.752,219.966 C287.573,219.966 287.776,214.062 287.776,214.062 C287.776,214.062 288.582,214.427 289.926,214.427 C291.926,214.427 295.117,213.618 298.622,209.588 C304.48,202.848 297.018,196.867 297.018,196.867 C297.018,196.867 296.94,196.816 296.811,196.816 C296.352,196.816 295.243,197.46 294.638,203.31 C294.484,204.805 293.753,205.316 292.721,205.316 C291.602,205.316 290.13,204.714 288.66,204.112 C287.191,203.51 285.723,202.908 284.611,202.908 C283.652,202.908 282.959,203.357 282.759,204.641 C282.06,209.147 279.604,210.764 276.939,210.764 C275.53,210.764 274.063,210.312 272.767,209.596 C272.031,209.189 271.47,209.009 271.032,209.009 C269.239,209.009 269.52,212.022 268.398,214.77 C267.389,217.239 264.841,217.554 262.381,217.554 C261.958,217.554 261.538,217.545 261.128,217.536 C260.719,217.526 260.32,217.517 259.941,217.517 z M241.761,135.149 C243.251,135.149 244.395,135.494 244.445,136.63 C244.584,139.825 246.956,140.48 248.878,140.48 C250.215,140.48 251.335,140.163 251.335,140.163 C251.335,140.163 251.358,138.315 250.766,136.128 C250.94,135.202 251.04,134.405 251.082,133.727 L250.35,133.202 C249.414,130.746 246.126,127.964 241.892,127.964 C240.448,127.964 238.894,128.287 237.287,129.057 C237.761,127.167 234.604,120.687 229.063,120.687 C228.268,120.687 227.425,120.82 226.537,121.119 C222.102,122.61 220.998,123.846 221.501,124.23 C221.122,124.416 220.734,124.613 220.335,124.824 C220.58,126.62 221.472,127.129 222.585,127.129 C223.312,127.129 224.135,126.912 224.934,126.694 C225.733,126.476 226.508,126.259 227.14,126.259 C227.206,126.259 227.271,126.261 227.334,126.266 C229.519,126.443 229.395,128.065 230.663,130.272 C231.873,132.378 233.179,135.946 235.554,135.946 C235.663,135.946 235.775,135.939 235.889,135.923 C237.348,135.724 239.841,135.149 241.761,135.149 z M311.647,76.554 C315.408,76.554 314.808,86.706 319.533,86.93 C325.474,80.571 321.76,70.23 313.118,68.793 C310.499,59.55 303.932,58.603 301.351,58.603 C300.686,58.603 300.286,58.666 300.286,58.666 C300.286,58.666 301.363,53.303 292.444,51.129 C291.492,50.897 290.634,50.793 289.86,50.793 C283.388,50.793 282.832,58.043 282.832,58.043 C282.832,58.043 280.922,59.94 284.931,59.94 C285.435,59.94 286.033,59.91 286.74,59.843 C286.974,59.82 287.196,59.81 287.405,59.81 C290.048,59.81 290.75,61.529 291.421,63.249 C292.092,64.968 292.732,66.687 295.249,66.687 C295.395,66.687 295.546,66.682 295.705,66.67 C295.96,66.651 296.21,66.642 296.454,66.642 C301.796,66.642 304.346,71.096 304.187,75.098 C304.103,77.179 304.878,77.828 306.129,77.827 C307.391,77.827 309.138,77.166 310.974,76.653 C311.214,76.586 311.437,76.554 311.647,76.554 z M141.355,53.541 C138.973,53.541 135.132,54.844 132.167,62.079 C123.612,62.434 119.097,71.385 122.306,79.864 C125.514,76.685 127.355,71.975 130.622,70.207 C130.896,70.059 131.175,69.994 131.459,69.994 C132.405,69.994 133.398,70.714 134.427,71.433 C135.454,72.152 136.517,72.872 137.6,72.872 C138.199,72.872 138.804,72.652 139.413,72.09 C142.427,69.317 142.975,64.509 147.23,64.509 C147.672,64.509 148.153,64.561 148.682,64.672 C148.935,64.725 149.166,64.75 149.378,64.75 C151.384,64.75 151.634,62.478 152.067,60.205 C152.5,57.933 153.116,55.66 155.853,55.66 C156.503,55.66 157.272,55.788 158.186,56.074 C161.427,57.089 163.301,57.358 164.378,57.358 C165.59,57.358 165.79,57.017 165.79,57.017 C165.79,57.017 163.82,47.964 156.539,47.964 C155.432,47.964 154.204,48.173 152.84,48.654 C144.384,51.64 143.572,53.954 143.572,53.954 C143.572,53.954 142.694,53.541 141.355,53.541 z M146.78,222.836 C146.78,222.836 147.365,222.642 148.031,222.148 C148.398,222.346 148.787,222.514 149.197,222.647 C147.784,222.711 146.78,222.836 146.78,222.836 z" fill="url(#Gradient_1)" id="path70479"/>
    <path d="M227.889,257.567 C227.806,257.567 227.718,257.535 227.625,257.475 C227.811,257.495 227.983,257.502 228.142,257.502 C228.406,257.502 228.678,257.479 228.959,257.435 C228.58,257.521 228.222,257.567 227.889,257.567 z M103.55,209.611 C103.482,209.557 103.417,209.499 103.356,209.436 C103.357,209.379 103.358,209.321 103.359,209.264 C103.299,209.251 103.24,209.238 103.181,209.225 C103.169,209.208 103.157,209.19 103.145,209.172 C103.063,209.044 102.997,208.9 102.94,208.746 C103.098,208.902 103.239,209.075 103.359,209.264 C103.43,209.376 103.494,209.492 103.55,209.611 z" fill="url(#Gradient_2)" id="path70481"/>
    <g clip-path="url(#Clip_2)" id="g70485">
      <path d="M363.223,128.682 L363.223,258.282 L13.961,257.924 L66.943,128.682 z" fill="url(#Gradient_3)" id="path70483"/>
    </g>
    <g clip-path="url(#Clip_3)" id="g70489">
      <path d="M361.38,142.044 C360.48,142.044 359.582,142.341 358.84,142.935 C357.312,144.158 356.894,146.293 357.848,147.996 C359.142,150.319 361.565,156.127 360.788,159.212 C359.716,163.457 356.847,166.095 356.818,166.117 C355.46,167.295 355.058,169.217 355.817,170.828 C356.355,172.667 355.165,178.833 353.996,180.349 C353.337,180.759 352.811,181.354 352.484,182.058 C351.88,183.352 351.26,184.871 350.599,186.48 C349.302,189.651 345.856,198.074 343.754,198.577 C342.405,198.577 341.184,199.243 340.433,200.358 C337.26,205.073 331.02,208.437 330.958,208.469 C329.647,209.168 328.824,210.525 328.824,212.001 C328.824,215.604 324.47,221.025 322.624,221.661 L322.41,221.655 C321.126,221.655 319.909,222.262 319.141,223.306 C318.222,224.56 317.462,225.881 316.728,227.161 C314.226,231.516 312.576,234.396 306.287,234.396 C306.02,234.396 305.746,234.39 305.462,234.38 L305.299,234.375 C304.299,234.375 303.329,234.747 302.583,235.416 C296.24,241.13 289.26,245.439 286.346,245.44 L286.218,245.436 C285.449,244.462 284.242,243.848 282.994,243.848 L282.904,243.851 C281.563,243.882 280.29,244.518 279.565,245.635 C277.205,249.277 272.376,252.998 269.711,254.142 C269.451,253.316 268.923,252.585 268.194,252.073 C267.5,251.586 266.682,251.334 265.856,251.334 C265.408,251.334 264.956,251.407 264.521,251.559 C260.1,253.092 251.873,255.947 246.46,255.948 C243.042,255.948 242.819,254.95 242.712,254.471 C242.441,253.268 241.627,252.253 240.502,251.723 C239.953,251.465 239.36,251.334 238.767,251.334 C238.147,251.334 237.528,251.476 236.959,251.758 C236.117,252.176 235.309,254.596 234.531,254.998 C231.873,256.375 229.575,257.567 227.889,257.567 C227.211,257.567 226.243,255.404 224.721,254.146 C223.971,253.527 223.052,253.219 222.133,253.219 C221.195,253.219 220.259,253.541 219.502,254.183 C217.992,255.466 212.54,257.964 207.937,257.964 C205.792,257.966 204.212,257.436 203.242,256.392 C202.464,255.556 201.38,255.103 200.27,255.103 C199.873,255.103 199.473,255.16 199.082,255.279 C197.812,255.667 195.92,255.89 193.894,255.89 C188.695,255.89 185.09,256.542 184.346,255.716 C184.282,254.509 183.669,251.39 182.674,250.678 C181.977,250.18 181.148,249.922 180.311,249.922 C179.882,249.922 179.451,249.988 179.033,250.127 C176.983,250.806 173.682,251.527 170.565,251.527 C164.836,251.527 164.461,249.292 164.337,248.559 C164.119,247.264 163.277,246.158 162.085,245.598 C161.534,245.338 160.941,245.21 160.35,245.21 C159.657,245.21 158.965,245.387 158.345,245.737 C156.989,246.507 155.5,246.912 154.04,246.912 C152.679,246.912 151.427,246.546 150.607,245.908 C149.758,245.248 149.659,244.523 149.659,244.034 C149.659,242.746 149.035,241.538 147.981,240.785 C147.284,240.286 146.455,240.027 145.618,240.027 C145.189,240.027 144.757,240.096 144.34,240.234 C143.506,240.51 142.523,240.648 141.418,240.648 C135.874,240.648 130.454,237.357 130.12,235.367 C129.79,233.409 128.079,232.02 126.138,232.02 C125.928,232.02 125.716,232.035 125.502,232.069 C124.931,232.159 124.376,232.204 123.855,232.204 C121.772,232.204 120.108,231.48 118.908,230.055 C117.827,228.769 117.342,227.159 117.342,226.134 C117.342,224.189 115.935,222.525 114.003,222.188 C110.717,221.612 107.723,219.664 105.991,216.974 C104.759,215.06 104.354,212.99 104.85,211.148 C105.141,210.069 103.749,210.116 103.145,209.172 C102.54,208.228 102.778,206.375 101.668,206.174 C99.301,205.749 96.25,204.196 94.996,202.055 C94.258,200.795 94.187,199.437 94.775,197.787 C95.154,196.725 95.063,195.551 94.523,194.558 C93.985,193.565 91.836,194.042 90.732,193.769 C86.904,192.821 85.622,189.136 84.923,187.23 C84.453,185.948 84.826,185.193 85.203,184.679 C86.263,183.234 86.23,181.272 85.125,179.863 C84.761,179.4 84.405,178.956 84.059,178.523 C81.141,174.879 80.842,174.132 81.271,173.28 C82.043,171.753 81.752,169.909 80.55,168.688 C79.771,167.898 78.721,167.481 77.655,167.481 C77.076,167.481 76.493,167.604 75.945,167.859 C76.211,166.063 75.222,164.27 73.491,163.563 C72.985,163.354 72.458,163.255 71.94,163.255 C70.522,163.255 69.165,163.994 68.433,165.285 C68.206,165.68 67.928,166.098 67.637,166.488 C67.72,164.103 68.824,160.697 69.882,159.389 C70.377,158.773 70.68,158.03 70.752,157.247 C70.855,156.123 70.937,155.019 71.015,153.96 C71.191,151.564 71.433,148.285 71.905,147.446 C72.598,146.531 72.84,145.402 72.61,144.28 C72.384,143.162 71.66,142.224 70.664,141.648 C70.402,141.496 69.606,141.034 69.274,139.163 C68.71,135.985 70.043,132.062 70.781,131.184 C71.516,130.311 71.841,129.169 71.676,128.044 C71.55,127.177 71.141,126.382 70.522,125.775 C69.519,123.307 68.411,114.855 70.004,112.794 C71.737,112.529 73.132,111.169 73.388,109.401 C73.494,108.652 73.552,107.731 73.626,106.566 C73.977,100.918 74.621,97.635 75.542,96.8 C77.35,96.597 78.805,95.219 79.084,93.427 C79.969,87.726 80.755,80.043 86.285,77.645 C87.278,77.214 88.056,76.405 88.442,75.4 C92.228,65.548 95.143,64.284 97.611,64.284 C97.807,64.284 98.814,62.691 99.017,62.706 C99.122,62.714 100.844,62.318 100.947,62.318 C102.532,62.318 102.771,63.395 103.425,61.94 C106.856,54.285 109.589,51.568 111.578,51.568 L111.828,51.58 C111.963,51.594 112.097,51.601 112.23,51.601 C113.535,51.601 115.58,48.973 116.34,47.903 C120.717,41.755 123.286,41.683 124.525,41.541 C124.905,41.655 125.293,41.709 125.676,41.709 C127.1,41.709 131.297,39.358 132.032,38.064 C135.507,31.941 141.849,27.821 143.434,27.454 C144.569,27.399 145.634,26.872 146.361,25.998 C150.642,20.847 154.564,18.122 157.701,18.122 C158.211,18.122 158.698,18.193 159.189,18.338 C159.573,18.453 159.964,18.508 160.35,18.508 C161.62,18.508 162.845,17.914 163.619,16.856 C166.331,13.162 170.148,11.174 173.344,11.174 C174.109,11.174 174.827,11.305 175.533,11.575 C176.003,11.754 176.495,11.842 176.984,11.842 C177.773,11.842 178.553,11.613 179.226,11.168 L179.718,10.844 C182.298,9.127 186.197,6.937 189.854,6.937 C191.66,6.937 193.218,7.558 194.759,8.895 C195.498,9.536 196.444,9.487 197.42,9.487 C197.548,9.487 197.676,9.48 197.807,9.467 C198.913,9.362 199.927,8.81 200.61,7.94 C201.826,6.393 206.108,4.144 210.052,4.144 C211.142,4.144 212.589,4.325 213.302,5.19 C214.09,6.144 215.249,6.659 216.431,6.659 C217.043,6.659 217.661,6.522 218.237,6.236 C220.795,4.97 225.297,3.205 229.142,3.205 C234.017,3.205 235.442,5.26 235.911,5.935 C236.676,7.04 237.932,8.473 239.242,8.473 C239.567,8.473 239.896,8.434 240.222,8.353 C241.978,7.918 244.156,7.669 246.196,7.669 C249.39,7.669 254.953,7.872 256.318,11.929 C256.664,12.954 257.411,13.799 258.394,14.268 C258.947,14.535 259.549,14.67 260.155,14.67 C260.62,14.67 261.087,14.589 261.533,14.427 C262.166,14.199 263.071,14.074 264.078,14.074 C268.352,14.074 272.455,15.691 272.963,16.741 C273.515,18.377 275.046,19.451 276.786,19.451 C280.28,19.451 286.503,22.844 287.657,26.562 C287.852,27.191 288.199,27.082 288.659,26.973 C288.991,26.894 289.383,26.816 289.821,27.016 C290.359,27.263 290.938,26.987 291.518,26.987 C292.061,26.987 292.602,26.88 293.111,26.663 C293.426,26.529 293.73,26.464 294.039,26.464 C296.898,26.464 300.455,31.881 300.848,33.51 C301.036,34.626 304.117,37.19 305.08,37.802 C305.723,38.211 306.465,38.416 307.216,38.416 C307.584,38.416 307.953,38.366 308.318,38.268 C308.448,38.234 308.603,38.215 308.774,38.215 C311.82,38.215 314.83,42.438 314.83,44.296 C314.83,46.135 317.708,47.738 319.508,48.184 C324.095,49.321 325.052,52.367 324.748,57.237 C324.628,59.133 326.675,60.852 328.527,61.351 C332.513,62.431 338.976,67.268 338.976,69.734 C338.976,71.253 340.246,72.64 341.616,73.318 C350.072,77.508 345.92,81.566 345.751,82.899 C345.608,84.039 348.392,85.186 349.159,86.046 C349.853,86.827 350.012,87.304 351.048,87.388 C352.837,88.178 357.973,93.692 356.836,97.908 C356.339,99.768 355.219,101.705 356.946,102.541 C358.005,103.417 359.942,107.814 359.813,111.188 C359.782,112.022 359.588,112.449 359.474,112.521 C358.18,113.336 357.464,114.806 357.624,116.316 C357.772,117.733 358.667,118.958 359.962,119.544 C361.263,120.985 360.883,127.233 360.438,129.125 C359.98,130.359 360.165,131.737 360.926,132.808 C361.597,134.184 362.431,138.58 362.821,142.308 C362.359,142.133 361.87,142.044 361.38,142.044 M364.232,130.504 C365.181,128.15 364.232,117.314 360.431,115.9 C365.657,112.601 362.452,100.355 359.125,98.941 C361.025,91.875 353.897,83.396 350.573,83.396 C351.521,75.857 344.392,71.619 340.591,69.734 C340.591,65.024 334.414,58.901 329.185,57.487 C329.659,49.95 323.361,43.709 317.657,42.296 C317.657,37.585 310.055,30.991 304.827,32.403 C304.35,29.577 298.173,22.154 291.518,24.982 C289.95,19.926 281.207,15.444 276.786,15.444 C275.362,11.205 265.38,8.378 260.155,10.262 C257.301,1.783 244.945,3.053 239.242,4.466 C234.014,-3.072 221.183,0.699 216.428,3.053 C212.152,-2.128 200.746,1.64 197.42,5.879 C189.816,-0.714 181.262,5.409 176.984,8.235 C170.807,5.879 164.152,10.119 160.35,15.303 C155.597,13.889 149.896,15.845 143.241,23.851 C140.865,23.851 132.787,28.563 128.509,36.101 C126.134,35.158 119.955,37.985 114.252,45.993 C109.5,45.523 104.747,50.233 100.946,58.713 C94.767,58.243 89.276,64.083 85.474,73.975 C77.87,77.274 76.444,86.694 75.493,92.818 C69.791,93.289 70.267,105.537 69.791,108.835 C64.088,108.835 63.613,126.737 66.463,128.62 C64.086,131.446 61.711,142.611 67.415,145.908 C65.988,147.792 65.988,152.504 65.514,157.685 C63.613,160.039 60.761,168.049 63.613,171.817 C66.463,175.585 70.741,168.049 70.741,168.049 C70.741,168.049 67.151,177.259 75.23,173.488 C73.33,177.257 77.394,179.284 80.721,183.524 C76.919,188.706 82.147,195.771 89.752,197.655 C86.9,205.664 94.503,210.375 99.731,211.318 C97.831,218.384 105.223,226.32 113.3,227.733 C113.3,231.974 117.103,239.039 126.132,237.627 C127.083,243.279 138.489,247.99 145.618,245.635 C145.618,251.761 153.698,254.586 160.35,250.816 C161.776,259.295 174.608,257.811 180.311,255.928 C180.311,261.582 194.093,262.994 200.273,261.11 C205.974,267.233 218.806,262.052 222.133,259.226 C227.837,263.937 232.113,260.64 238.767,257.342 C240.667,265.822 257.161,260.238 266.664,256.941 C266.664,264.949 279.497,255.998 283.774,249.403 C287.575,255.057 300.881,244.693 306.11,239.982 C317.992,240.456 320.63,230.845 324.432,225.662 C328.234,226.134 334.887,217.653 334.887,212.001 C334.887,212.001 342.016,208.233 345.82,202.58 C351.521,202.58 355.324,189.86 358.174,183.736 C361.027,182.322 362.927,171.961 361.502,169.133 C361.502,169.133 365.303,165.836 366.731,160.182 C368.156,154.529 363.403,146.051 363.403,146.051 C363.403,146.051 363.403,146.051 367.207,149.349 C371.007,152.643 366.132,132.858 364.232,130.504" fill="#1A1919" id="path70487"/>
    </g>
    <path d="M143.691,102.712 C142.74,101.063 137.037,98 136.086,100.356 C135.136,102.712 134.422,105.539 134.66,106.952 C134.899,108.366 134.66,108.599 137.512,109.543 C140.363,110.484 140.84,109.307 142.027,107.895 C143.215,106.482 143.691,102.712 143.691,102.712" fill="#E7792B" id="path70491"/>
    <path d="M144.404,102.713 C144.848,101.391 138.179,96.544 135.065,100.511 C131.954,104.477 134.621,109.765 135.51,108.002 C136.399,106.241 135.065,103.596 136.844,101.833 C138.623,100.069 141.291,100.952 142.624,102.713 C143.958,104.477 144.404,102.713 144.404,102.713" fill="#1A1919" id="path70493"/>
    <path d="M192.761,195.041 C191.81,193.393 186.106,190.331 185.156,192.686 C184.206,195.041 183.492,197.868 183.731,199.281 C183.969,200.694 183.731,200.93 186.583,201.871 C189.433,202.814 189.909,201.638 191.097,200.224 C192.285,198.812 192.761,195.041 192.761,195.041" fill="#E7792B" id="path70495"/>
    <path d="M193.473,195.043 C193.918,193.722 187.248,188.874 184.135,192.841 C181.023,196.808 183.691,202.096 184.58,200.331 C185.469,198.57 184.135,195.925 185.914,194.163 C187.691,192.4 190.36,193.281 191.694,195.043 C193.028,196.808 193.473,195.043 193.473,195.043" fill="#1A1919" id="path70497"/>
    <path d="M192.047,133.447 C191.097,131.798 185.394,128.735 184.442,131.091 C183.492,133.447 182.778,136.274 183.017,137.686 C183.254,139.1 183.017,139.335 185.869,140.277 C188.72,141.219 189.196,140.043 190.383,138.631 C191.571,137.217 192.047,133.447 192.047,133.447" fill="#E7792B" id="path70499"/>
    <path d="M192.76,133.448 C193.204,132.125 186.535,127.279 183.421,131.246 C180.31,135.212 182.977,140.501 183.866,138.738 C184.755,136.975 183.421,134.329 185.2,132.567 C186.979,130.804 189.646,131.687 190.98,133.448 C192.314,135.212 192.76,133.448 192.76,133.448" fill="#1A1919" id="path70501"/>
    <path d="M337.676,139.769 C339.083,138.479 340.803,132.278 338.272,131.893 C335.744,131.508 332.804,131.458 331.469,132.007 C330.134,132.557 329.848,132.38 329.569,135.346 C329.286,138.312 330.55,138.507 332.208,139.332 C333.865,140.161 337.676,139.769 337.676,139.769" fill="#E7792B" id="path70503"/>
    <path d="M337.836,140.456 C339.237,140.586 342.492,133.053 337.891,130.941 C333.291,128.834 328.695,132.605 330.629,133.065 C332.561,133.526 334.86,131.64 336.994,132.959 C339.128,134.277 338.865,137.054 337.434,138.739 C336.001,140.425 337.836,140.456 337.836,140.456" fill="#1A1919" id="path70505"/>
    <path d="M114.104,155.471 C113.154,153.821 107.449,150.76 106.5,153.114 C105.549,155.471 104.836,158.298 105.074,159.71 C105.312,161.124 105.074,161.358 107.926,162.302 C110.777,163.244 111.253,162.066 112.441,160.654 C113.629,159.24 114.104,155.471 114.104,155.471" fill="#EFA92C" id="path70507"/>
    <path d="M114.817,155.472 C115.262,154.15 108.593,149.304 105.479,153.27 C102.366,157.236 105.035,162.525 105.924,160.762 C106.813,159.001 105.479,156.354 107.258,154.592 C109.036,152.827 111.705,153.71 113.038,155.472 C114.372,157.236 114.817,155.472 114.817,155.472" fill="#1A1919" id="path70509"/>
    <path d="M97.709,77.743 C96.758,76.094 91.055,73.031 90.104,75.387 C89.154,77.743 88.44,80.569 88.678,81.983 C88.916,83.396 88.678,83.631 91.529,84.573 C94.381,85.517 94.856,84.339 96.045,82.925 C97.233,81.513 97.709,77.743 97.709,77.743" fill="#EFA92C" id="path70511"/>
    <path d="M98.422,77.744 C98.866,76.423 92.195,71.574 89.083,75.542 C85.972,79.507 88.638,84.796 89.528,83.033 C90.416,81.272 89.083,78.627 90.861,76.863 C92.64,75.1 95.308,75.982 96.642,77.744 C97.976,79.507 98.422,77.744 98.422,77.744" fill="#1A1919" id="path70513"/>
    <path d="M281.283,177.907 C282.357,176.334 282.616,169.909 280.062,170.104 C277.509,170.297 274.635,170.908 273.46,171.744 C272.287,172.579 271.971,172.471 272.374,175.423 C272.778,178.374 274.053,178.28 275.856,178.713 C277.659,179.146 281.283,177.907 281.283,177.907" fill="#EFA92C" id="path70515"/>
    <path d="M281.596,178.543 C282.988,178.355 284.434,170.284 279.472,169.264 C274.507,168.245 270.895,172.95 272.884,172.963 C274.872,172.976 276.68,170.623 279.059,171.428 C281.441,172.232 281.819,174.995 280.813,176.958 C279.801,178.922 281.596,178.543 281.596,178.543" fill="#1A1919" id="path70517"/>
    <path d="M222.225,244.368 C221.663,246.185 223.307,252.404 225.692,251.479 C228.077,250.557 230.643,249.14 231.521,248.002 C232.4,246.863 232.734,246.874 231.478,244.167 C230.223,241.46 229.031,241.921 227.179,242.028 C225.327,242.136 222.225,244.368 222.225,244.368" fill="#EFA92C" id="path70519"/>
    <path d="M221.742,243.852 C220.462,244.435 221.456,252.572 226.505,252.113 C231.551,251.652 233.621,246.104 231.714,246.668 C229.811,247.231 228.775,250.003 226.26,249.925 C223.746,249.843 222.571,247.309 222.957,245.141 C223.343,242.97 221.742,243.852 221.742,243.852" fill="#1A1919" id="path70521"/>
    <path d="M257.392,94.712 C258.29,93.034 257.851,86.619 255.335,87.081 C252.819,87.546 250.028,88.459 248.95,89.414 C247.873,90.37 247.544,90.295 248.266,93.188 C248.988,96.081 250.247,95.85 252.084,96.089 C253.925,96.327 257.392,94.712 257.392,94.712" fill="#EFA92C" id="path70523"/>
    <path d="M257.773,95.31 C259.137,94.974 259.703,86.795 254.657,86.309 C249.613,85.824 246.53,90.886 248.509,90.688 C250.486,90.489 252.028,87.96 254.483,88.506 C256.935,89.054 257.61,91.759 256.821,93.817 C256.03,95.878 257.773,95.31 257.773,95.31" fill="#1A1919" id="path70525"/>
    <path d="M130.388,207.013 L131.04,207.633 C131.83,211.068 136.724,215.655 143.409,213.511 C142.569,215.58 145.607,224.234 152.958,222.836 C160.308,221.439 159.14,219.533 156.091,220.481 C153.043,221.428 144.95,222.713 145.462,214.271 C145.771,209.196 144.989,210.358 141.772,211.72 C138.552,213.083 132.765,209.879 132.728,205.78 C132.701,202.571 132.642,203.367 131.156,204.32 C130.792,205.364 130.54,206.26 130.388,207.013" fill="#1A1919" id="path70527"/>
    <g clip-path="url(#Clip_4)" id="g70531">
      <path d="M160.806,199.884 L170.83,230.017 L130.206,221.604 L116.066,186.638 z" fill="url(#Gradient_4)" id="path70529"/>
    </g>
    <g clip-path="url(#Clip_5)" id="g70535">
      <path d="M150.68,212.913 L150.68,221.331 L144.543,221.331 L144.543,212.913 z" fill="#EFA92C" id="path70533"/>
    </g>
    <path d="M151.749,222.216 C142.324,222.216 144.879,211.767 144.879,211.767 C144.879,211.767 143.511,212.671 140.65,212.671 C139.936,212.671 139.128,212.615 138.226,212.474 C133.267,211.49 131.603,207.577 131.068,204.577 C131.096,204.492 131.126,204.407 131.156,204.32 C131.837,203.883 132.218,203.479 132.434,203.479 C132.689,203.479 132.713,204.043 132.728,205.78 C132.759,209.226 136.853,212.039 140.069,212.038 C140.679,212.038 141.258,211.937 141.772,211.72 C143.197,211.117 144.144,210.553 144.73,210.553 C145.399,210.553 145.598,211.285 145.501,213.527 C145.491,213.759 145.478,214.007 145.462,214.271 C145.213,218.376 146.998,220.181 149.249,220.843 C150.043,221.077 150.896,221.169 151.738,221.169 C153.415,221.169 155.048,220.805 156.091,220.481 C156.661,220.304 157.164,220.227 157.559,220.227 C158.379,220.227 158.73,220.562 158.225,221.035 C155.605,221.865 153.476,222.216 151.749,222.216 z" fill="url(#Gradient_5)" id="path70537"/>
    <path d="M251.082,133.727 L250.35,133.202 C249.094,129.908 243.61,126.028 237.287,129.057 C237.83,126.896 233.625,118.736 226.537,121.119 C219.45,123.502 220.87,125.231 223.759,123.879 C226.646,122.526 234.485,120.154 235.146,128.585 C235.542,133.655 236.157,132.397 239.156,130.612 C242.155,128.823 248.33,131.212 248.933,135.266 C249.405,138.441 249.355,137.645 250.694,136.499 C250.913,135.414 251.035,134.494 251.082,133.727" fill="#1A1919" id="path70539"/>
    <g clip-path="url(#Clip_6)" id="g70543">
      <path d="M251.823,122.08 L265.963,149.016 L219.783,141.319 L203.674,109.013 z" fill="url(#Gradient_6)" id="path70541"/>
    </g>
    <path d="M249.522,137.507 C249.285,137.507 249.181,136.935 248.933,135.266 C248.468,132.144 244.701,130.01 241.623,130.01 C240.704,130.01 239.845,130.201 239.156,130.612 C237.742,131.454 236.859,132.178 236.278,132.178 C235.626,132.178 235.356,131.266 235.146,128.585 C234.773,123.824 232.111,122.508 229.343,122.508 C227.211,122.508 225.016,123.29 223.759,123.879 C223.058,124.207 222.444,124.354 222.016,124.354 C221.784,124.354 221.607,124.311 221.501,124.23 C225.066,122.483 227.79,121.799 229.871,121.799 C237.373,121.799 236.508,130.691 236.508,130.691 C236.508,130.691 238.336,129.084 242.664,129.084 C242.775,129.084 242.888,129.085 243.002,129.087 C247.928,129.38 249.943,133.083 250.766,136.128 C250.743,136.249 250.719,136.373 250.694,136.499 C250.059,137.042 249.736,137.507 249.522,137.507 z" fill="url(#Gradient_7)" id="path70545"/>
    <g clip-path="url(#Clip_7)" id="g70549">
      <path d="M166.249,47.52 L175.199,84.937 L118.369,80.462 L113.357,41.076 z" fill="url(#Gradient_8)" id="path70547"/>
    </g>
    <path d="M161.811,55.427 C163.719,53.852 157.567,47.513 153.434,48.773 C149.299,50.033 145.079,51.002 145.079,54.784 C141.58,54.156 134.585,56.915 133.948,63.848 C132.359,62.271 122.944,63.899 121.354,71.148 C119.765,78.398 123.017,77.806 123.334,74.654 C123.653,71.503 125.64,63.622 133.271,67.404 C137.858,69.677 137.088,68.509 137.088,65.041 C137.088,61.573 142.334,57.554 146.15,59.13 C149.966,60.709 147.741,59.683 148.059,56.53 C148.376,53.379 156.723,50.07 159.585,53.852 C161.175,56.372 161.811,55.427 161.811,55.427" fill="#1A1919" id="path70551"/>
    <g clip-path="url(#Clip_8)" id="g70555">
      <path d="M341.036,37.58 L331.013,90.515 L267.572,95.885 L274.374,45.456 z" fill="url(#Gradient_9)" id="path70553"/>
    </g>
    <path d="M282.887,58.251 C281.196,56.448 288.029,50.541 291.968,52.306 C295.911,54.075 299.815,56.799 299.334,60.55 C302.885,60.362 309.802,63.722 309.552,70.678 C311.33,69.313 320.541,70.825 321.197,78.215 C321.852,85.606 318.53,85.293 318.617,82.127 C318.701,78.961 317.73,70.896 309.679,73.694 C304.84,75.377 305.753,74.313 306.194,70.875 C306.634,67.434 301.939,62.791 297.956,63.879 C293.968,64.968 296.306,64.228 296.392,61.061 C296.476,57.898 288.616,53.57 285.296,56.965 C283.399,59.269 282.887,58.251 282.887,58.251" fill="#1A1919" id="path70557"/>
    <g clip-path="url(#Clip_9)" id="g70561">
      <path d="M304.782,196.265 L309.257,231.852 L221.992,225.229 L231.837,189.284 z" fill="url(#Gradient_10)" id="path70559"/>
    </g>
    <path d="M297.254,199.12 C299.638,198.431 300.75,206.392 297.391,209.086 C294.03,211.783 290.427,213.563 287.262,211.451 C285.837,214.682 279.625,218.895 273.463,215.549 C273.896,217.737 269.279,225.673 262.322,222.937 C255.364,220.199 256.873,218.544 259.689,220.042 C262.503,221.539 270.21,224.3 271.302,215.913 C271.958,210.874 272.509,212.16 275.411,214.092 C278.314,216.027 284.606,213.953 285.416,209.938 C286.223,205.916 285.84,208.319 288.657,209.817 C291.471,211.315 298.901,206.295 297.331,201.831 C296.107,199.114 297.254,199.12 297.254,199.12" fill="#1A1919" id="path70563"/>
    <path d="M171.968,40.057 C171.968,40.057 167.217,48.064 173.87,53.247 C180.523,58.429 190.028,57.017 190.028,57.017 C190.028,57.017 190.503,67.852 202.86,69.734 C215.216,71.619 220.445,65.497 220.445,65.497 C220.445,65.497 227.572,72.562 237.076,70.206 C246.584,67.85 254.186,64.552 254.186,56.545 C262.267,55.131 268.92,53.247 268.92,49.007 C268.92,44.768 264.64,39.117 259.891,37.231 C255.138,35.345 194.305,25.454 171.968,40.057 z" fill="url(#Gradient_11)" id="path70565"/>
    <path d="M200.898,15.934 C195.232,16.445 188.68,16.369 185.188,23.29 C181.698,30.21 188.242,36.264 195.662,37.562 C203.08,38.861 212.682,34.535 213.555,27.614 C214.424,20.693 205.7,15.502 200.898,15.934" fill="#0B8B42" id="path70567"/>
    <path d="M209.625,32.805 C204.826,37.995 193.479,36.698 189.553,33.67 C185.626,30.642 184.316,28.046 187.807,21.99 C191.297,15.934 201.434,16.513 205.7,18.099 C212.682,20.693 214.424,27.614 209.625,32.805 z M198.717,14.493 C189.799,14.493 183.298,20.065 183.298,27.47 C183.298,34.877 190.091,39.005 199.008,39.005 C207.923,39.005 214.424,33.722 214.424,26.317 C214.424,18.911 207.633,14.493 198.717,14.493" fill="#1A1919" id="path70569"/>
    <path d="M195.876,18.099 C190.525,17.944 193.551,26.731 203.421,29.032 C213.289,31.334 215.613,18.674 195.876,18.099" fill="#6CB644" id="path70571"/>
    <path d="M220.861,12.636 C215.194,13.147 208.641,13.069 205.148,19.99 C201.66,26.91 208.204,32.966 215.624,34.266 C223.042,35.562 232.641,31.237 233.514,24.316 C234.387,17.395 225.66,12.205 220.861,12.636" fill="#0B8B42" id="path70573"/>
    <path d="M229.588,29.506 C224.787,34.697 213.441,33.4 209.514,30.371 C205.586,27.345 204.278,24.747 207.769,18.69 C211.26,12.636 221.393,13.213 225.66,14.8 C232.641,17.395 234.387,24.316 229.588,29.506 z M218.677,11.194 C209.76,11.194 203.259,16.767 203.259,24.172 C203.259,31.578 210.052,35.706 218.968,35.706 C227.886,35.706 234.387,30.424 234.387,23.018 C234.387,15.611 227.595,11.194 218.677,11.194" fill="#1A1919" id="path70575"/>
    <path d="M215.835,14.8 C210.485,14.645 213.514,23.433 223.383,25.732 C233.25,28.036 235.573,15.376 215.835,14.8" fill="#6CB644" id="path70577"/>
    <path d="M241.293,18.288 C235.629,18.799 229.077,18.723 225.583,25.644 C222.095,32.564 228.639,38.619 236.058,39.917 C243.476,41.215 253.077,36.89 253.95,29.969 C254.823,23.046 246.095,17.857 241.293,18.288" fill="#0B8B42" id="path70579"/>
    <path d="M250.024,35.159 C245.222,40.35 233.875,39.053 229.95,36.025 C226.021,32.996 224.711,30.401 228.205,24.345 C231.694,18.288 241.829,18.867 246.095,20.454 C253.077,23.046 254.823,29.969 250.024,35.159 z M239.113,16.847 C230.195,16.847 223.694,22.419 223.694,29.825 C223.694,37.231 230.488,41.358 239.404,41.358 C248.322,41.358 254.823,36.077 254.823,28.672 C254.823,21.264 248.031,16.847 239.113,16.847" fill="#1A1919" id="path70581"/>
    <path d="M236.271,20.454 C230.921,20.299 233.95,29.085 243.819,31.387 C253.686,33.688 256.008,21.027 236.271,20.454" fill="#6CB644" id="path70583"/>
    <path d="M250.324,29.593 C244.658,30.105 238.105,30.028 234.613,36.95 C231.123,43.869 237.668,49.924 245.088,51.224 C252.506,52.521 262.107,48.195 262.979,41.274 C263.852,34.353 255.125,29.163 250.324,29.593" fill="#0B8B42" id="path70585"/>
    <path d="M259.052,46.464 C254.251,51.655 242.906,50.359 238.979,47.331 C235.05,44.303 233.743,41.706 237.231,35.651 C240.722,29.593 250.858,30.174 255.125,31.759 C262.107,34.353 263.852,41.274 259.052,46.464 z M248.142,28.154 C239.224,28.154 232.723,33.725 232.723,41.131 C232.723,48.536 239.518,52.665 248.433,52.665 C257.351,52.665 263.852,47.382 263.852,39.977 C263.852,32.571 257.06,28.154 248.142,28.154" fill="#1A1919" id="path70587"/>
    <path d="M245.301,31.759 C239.95,31.604 242.976,40.392 252.846,42.692 C262.715,44.994 265.038,32.334 245.301,31.759" fill="#6CB644" id="path70589"/>
    <path d="M236.38,44.389 C230.713,44.899 224.162,44.821 220.667,51.743 C217.179,58.663 223.723,64.719 231.143,66.016 C238.561,67.314 248.162,62.99 249.034,56.067 C249.907,49.148 241.179,43.955 236.38,44.389" fill="#0B8B42" id="path70591"/>
    <path d="M245.108,61.259 C240.306,66.45 228.96,65.151 225.034,62.124 C221.107,59.095 219.797,56.5 223.289,50.443 C226.778,44.389 236.913,44.966 241.179,46.553 C248.162,49.148 249.907,56.067 245.108,61.259 z M234.197,42.947 C225.282,42.947 218.778,48.52 218.778,55.923 C218.778,63.33 225.573,67.457 234.489,67.457 C243.406,67.457 249.907,62.177 249.907,54.77 C249.907,47.364 243.115,42.947 234.197,42.947" fill="#1A1919" id="path70593"/>
    <path d="M231.356,46.553 C226.004,46.398 229.034,55.184 238.901,57.485 C248.77,59.787 251.092,47.128 231.356,46.553" fill="#6CB644" id="path70595"/>
    <path d="M186.641,29.593 C180.975,30.105 174.423,30.028 170.931,36.95 C167.439,43.869 173.985,49.924 181.404,51.224 C188.823,52.521 198.424,48.195 199.296,41.274 C200.169,34.353 191.441,29.163 186.641,29.593" fill="#0B8B42" id="path70597"/>
    <path d="M195.368,46.464 C190.568,51.655 179.221,50.359 175.294,47.331 C171.368,44.303 170.058,41.706 173.55,35.651 C177.041,29.593 187.175,30.174 191.441,31.759 C198.424,34.353 200.169,41.274 195.368,46.464 z M184.459,28.154 C175.542,28.154 169.041,33.725 169.041,41.131 C169.041,48.536 175.833,52.665 184.751,52.665 C193.668,52.665 200.169,47.382 200.169,39.977 C200.169,32.571 193.377,28.154 184.459,28.154" fill="#1A1919" id="path70599"/>
    <path d="M181.618,31.759 C176.267,31.604 179.294,40.392 189.164,42.692 C199.033,44.994 201.355,32.334 181.618,31.759" fill="#6CB644" id="path70601"/>
    <path d="M209.452,41.372 C203.786,41.882 197.236,41.804 193.743,48.725 C190.253,55.646 196.798,61.703 204.215,62.999 C211.635,64.298 221.236,59.972 222.109,53.052 C222.981,46.128 214.253,40.938 209.452,41.372" fill="#0B8B42" id="path70603"/>
    <path d="M218.181,58.243 C213.38,63.433 202.035,62.135 198.107,59.107 C194.18,56.079 192.871,53.483 196.362,47.427 C199.851,41.372 209.988,41.95 214.253,43.535 C221.236,46.128 222.981,53.052 218.181,58.243 z M207.271,39.931 C198.353,39.931 191.852,45.502 191.852,52.907 C191.852,60.314 198.647,64.44 207.562,64.44 C216.48,64.44 222.981,59.161 222.981,51.754 C222.981,44.346 216.189,39.931 207.271,39.931" fill="#1A1919" id="path70605"/>
    <path d="M204.43,43.535 C199.079,43.381 202.107,52.169 211.976,54.469 C221.844,56.769 224.167,44.11 204.43,43.535" fill="#6CB644" id="path70607"/>
    <path d="M206.602,29.593 C200.936,30.105 194.383,30.028 190.892,36.95 C187.401,43.869 193.946,49.924 201.366,51.224 C208.783,52.521 218.383,48.195 219.256,41.274 C220.129,34.353 211.401,29.163 206.602,29.593" fill="#0B8B42" id="path70609"/>
    <path d="M215.331,46.464 C210.529,51.655 199.183,50.359 195.255,47.331 C191.328,44.303 190.019,41.706 193.51,35.651 C197,29.593 207.135,30.174 211.401,31.759 C218.383,34.353 220.129,41.274 215.331,46.464 z M204.419,28.154 C195.501,28.154 189.002,33.725 189.002,41.131 C189.002,48.536 195.794,52.665 204.71,52.665 C213.628,52.665 220.129,47.382 220.129,39.977 C220.129,32.571 213.337,28.154 204.419,28.154" fill="#1A1919" id="path70611"/>
    <path d="M201.578,31.759 C196.227,31.604 199.253,40.392 209.123,42.692 C218.993,44.994 221.315,32.334 201.578,31.759" fill="#6CB644" id="path70613"/>
    <path d="M226.562,24.884 C220.896,25.395 214.343,25.318 210.852,32.239 C207.361,39.159 213.906,45.214 221.326,46.513 C228.743,47.812 238.346,43.486 239.218,36.564 C240.088,29.643 231.362,24.452 226.562,24.884" fill="#0B8B42" id="path70615"/>
    <path d="M235.29,41.755 C230.488,46.946 219.142,45.649 215.216,42.621 C211.289,39.592 209.979,36.996 213.47,30.941 C216.961,24.884 227.095,25.463 231.362,27.048 C238.346,29.643 240.088,36.564 235.29,41.755 z M224.378,23.443 C215.463,23.443 208.962,29.014 208.962,36.421 C208.962,43.827 215.754,47.955 224.672,47.955 C233.587,47.955 240.088,42.673 240.088,35.267 C240.088,27.859 233.296,23.443 224.378,23.443" fill="#1A1919" id="path70617"/>
    <path d="M221.538,27.048 C216.189,26.894 219.215,35.681 229.085,37.983 C238.953,40.283 241.277,27.624 221.538,27.048" fill="#6CB644" id="path70619"/>
  </g>
</svg>
